<svg width="22" height="23" viewBox="0 0 22 23" fill="none" xmlns="http://www.w3.org/2000/svg">
<path d="M4.47177 1.4136C4.47177 1.11122 4.46783 0.832411 4.47177 0.553599C4.47966 0.20803 4.66499 -9.69653e-05 4.96075 -9.69653e-05C5.26044 -9.69653e-05 5.44578 0.211957 5.44578 0.557526C5.44972 0.812777 5.44578 1.06803 5.44972 1.32328C5.44972 1.33898 5.45761 1.35469 5.46155 1.39003C7.67378 1.39003 9.886 1.39003 12.1337 1.39003C12.1337 1.11515 12.1337 0.840265 12.1337 0.561453C12.1416 0.215884 12.3191 0.00382996 12.6187 -9.69653e-05C12.9184 -0.00402389 13.1077 0.200176 13.1156 0.549673C13.1235 0.812777 13.1196 1.07588 13.1235 1.33898C13.1235 1.35469 13.1353 1.36647 13.155 1.4136C13.2339 1.4136 13.3286 1.4136 13.4192 1.4136C14.1093 1.42538 14.8034 1.39003 15.4856 1.45679C16.637 1.57067 17.544 2.57204 17.5756 3.72656C17.6032 4.81039 17.5874 5.89814 17.5874 6.9859C17.5874 8.6627 17.5874 10.3395 17.5874 12.0163C17.5874 12.1105 17.5874 12.2048 17.5874 12.3108C19.0937 12.6328 20.2846 13.4104 21.1285 14.6866C21.7673 15.6566 22.0552 16.7365 21.9882 17.891C21.8462 20.3178 20.1466 22.3205 17.7924 22.8585C15.2411 23.4397 12.5162 22.0928 11.5343 19.5638C11.4436 19.5638 11.345 19.5638 11.2504 19.5638C8.33232 19.5638 5.41029 19.5678 2.4922 19.5638C1.23821 19.5638 0.244488 18.7274 0.0315469 17.5022C0.00394336 17.3373 0.00394336 17.1684 0.00394336 16.9996C0 12.6682 0 8.33284 0 3.99751C0 2.4503 1.04499 1.41752 2.59867 1.4136C3.12708 1.4136 3.65549 1.4136 4.18785 1.4136C4.2746 1.4136 4.36135 1.4136 4.47177 1.4136ZM11.2701 18.5978C11.0138 16.9289 11.3845 15.4445 12.4571 14.1643C13.5297 12.8881 14.9374 12.2715 16.5897 12.2205C16.5897 10.1432 16.5897 8.08937 16.5897 6.03951C11.3805 6.03951 6.18713 6.03951 0.977953 6.03951C0.977953 6.14554 0.977953 6.23193 0.977953 6.31833C0.977953 9.86434 0.977953 13.4104 0.977953 16.9524C0.977953 17.9852 1.58523 18.5939 2.61839 18.5939C5.41029 18.5939 8.19824 18.5939 10.9901 18.5939C11.0769 18.5978 11.1636 18.5978 11.2701 18.5978ZM21.0181 17.6161C21.026 15.1971 19.0385 13.2101 16.5976 13.2022C14.1685 13.1983 12.185 15.1618 12.1731 17.5807C12.1613 20.0233 14.1212 22.0025 16.5621 22.0142C19.0188 22.026 21.0102 20.0586 21.0181 17.6161ZM1.01739 5.03422C6.21473 5.03422 11.4081 5.03422 16.6134 5.03422C16.6134 4.66116 16.6134 4.30381 16.6134 3.94254C16.6094 3.02756 15.9982 2.41104 15.0794 2.40318C14.5037 2.39925 13.924 2.40318 13.3483 2.40318C13.2812 2.40318 13.2103 2.41496 13.1274 2.41889C13.1274 2.72126 13.1353 3.00007 13.1274 3.27889C13.1196 3.61267 12.9263 3.81295 12.6385 3.81687C12.3388 3.81687 12.1495 3.60875 12.1416 3.26318C12.1377 2.98437 12.1416 2.70948 12.1416 2.42282C9.90177 2.42282 7.68955 2.42282 5.45367 2.42282C5.45367 2.72126 5.45761 3.00007 5.45367 3.27496C5.44972 3.60875 5.26438 3.81295 4.97258 3.81295C4.66894 3.81687 4.4836 3.61267 4.47966 3.26318C4.47571 2.98437 4.47966 2.70948 4.47966 2.42674C3.68704 2.42674 2.91809 2.37962 2.15702 2.44245C1.57734 2.48957 1.08837 3.00793 1.02922 3.56948C0.977953 4.04856 1.01739 4.5355 1.01739 5.03422Z" fill="#333333" fill-opacity="0.5"/>
<path d="M8.30858 11.2035C7.10585 11.2035 5.90313 11.2035 4.7004 11.2035C4.62154 11.2035 4.53872 11.2035 4.45986 11.1957C4.1996 11.1682 4.01031 10.9679 4.01031 10.7205C4.00637 10.477 4.19565 10.265 4.45197 10.2296C4.52295 10.2218 4.59787 10.2257 4.66886 10.2257C7.09796 10.2257 9.53102 10.2257 11.9601 10.2257C12.0074 10.2257 12.0548 10.2257 12.106 10.2257C12.4057 10.2414 12.6226 10.4535 12.6187 10.7205C12.6147 10.9875 12.4136 11.1878 12.1179 11.1957C11.7078 11.2074 11.3016 11.1996 10.8915 11.1996C10.0239 11.2035 9.16428 11.2035 8.30858 11.2035Z" fill="#333333" fill-opacity="0.5"/>
<path d="M6.77858 14.3922C6.04117 14.3922 5.30376 14.3961 4.56636 14.3922C4.23117 14.3922 4.00245 14.1841 4.0064 13.8974C4.01034 13.6225 4.2154 13.4222 4.52692 13.4144C4.87788 13.4065 5.23278 13.4105 5.58374 13.4105C6.7076 13.4105 7.82751 13.4105 8.95137 13.4105C9.31416 13.4105 9.5271 13.5793 9.54287 13.8699C9.55865 14.1801 9.34571 14.3883 8.9908 14.3922C8.25734 14.3922 7.51993 14.3922 6.77858 14.3922Z" fill="#333333" fill-opacity="0.5"/>
<path d="M15.9549 18.6254C16.1481 18.4448 16.3335 18.2681 16.5188 18.0953C17.2799 17.3727 18.0331 16.6462 18.802 15.9315C18.9085 15.8294 19.0781 15.7352 19.2161 15.743C19.358 15.7509 19.5592 15.8491 19.6222 15.9669C19.6893 16.0965 19.6538 16.2967 19.6222 16.4577C19.6065 16.5363 19.5039 16.603 19.4369 16.6698C18.4235 17.6358 17.41 18.6018 16.3926 19.5679C16.0614 19.882 15.8327 19.8781 15.5093 19.56C14.9375 18.9906 14.3618 18.4212 13.79 17.8479C13.4943 17.5494 13.585 17.1175 13.9556 17.0036C14.1725 16.9368 14.346 17.0232 14.4959 17.1764C14.9178 17.6005 15.3437 18.0246 15.7696 18.4487C15.8248 18.5076 15.8839 18.5586 15.9549 18.6254Z" fill="#333333" fill-opacity="0.5"/>
</svg>
