<svg width="237" height="40" viewBox="0 0 237 40" fill="none" xmlns="http://www.w3.org/2000/svg">
<path d="M26.5779 15.9091C26.5779 16.5455 26.5779 16.5909 27.2076 16.5909H28.737C29.9066 16.5909 30.1765 16.4545 30.4014 15.3636L30.4913 14.8182C30.6263 14.6364 31.2111 14.6364 31.301 14.8182C31.2561 15.5455 31.2111 16.3636 31.2111 17.2273C31.2111 18.0909 31.2561 18.9091 31.301 19.6364C31.1661 19.8182 30.6263 19.8636 30.4913 19.6818L30.4014 19.1364C30.1765 18.0455 29.9066 17.8636 28.737 17.8636H27.2076C26.6228 17.8636 26.5779 17.8636 26.5779 18.5455V21.2273C26.5779 22.2727 26.6678 23 26.9377 23.3636C27.2076 23.7727 27.6574 23.9545 29.2768 23.9545C31.2111 23.9545 31.9758 23.9091 33.1903 21.3182C33.3702 21.0909 33.91 21.1818 34 21.4091C33.91 22.5909 33.3702 24.4091 33.0554 25C31.8858 24.9545 29.7266 24.9545 27.8824 24.9545H24.9585C23.8789 24.9545 22.7993 24.9545 21.1349 25C20.955 24.8636 20.955 24.3182 21.1349 24.2273L22.1695 24.0909C23.1592 23.9545 23.2941 23.8182 23.2941 21.7273V13.2727C23.2941 11.2273 23.1592 11.0909 22.1695 10.8636L21.6298 10.7727C21.4048 10.6364 21.4498 10.1364 21.6747 10C22.7093 10.0455 23.8339 10.0455 24.9135 10.0455H29.6367C31.0761 10.0455 32.3356 10.0455 32.6505 10C32.6955 10.3636 32.8304 12 32.9204 13.5C32.8304 13.7273 32.3356 13.7727 32.1107 13.5909C31.8858 12.8182 31.5709 12.1364 31.2561 11.8182C30.8512 11.4091 30.1765 11.1364 29.0519 11.1364H27.2526C26.5329 11.1364 26.5329 11.1818 26.5329 12V15.9091H26.5779Z" fill="#00263E"/>
<path d="M35.9408 13.7386C35.9408 11.459 35.8957 11.231 34.9478 11.0942L34.3611 11.003C34.1805 10.9119 34.1354 10.228 34.4514 10.1824C36.1665 10.0912 37.7913 10 40.0481 10C42.2145 10 43.6137 10.228 44.6067 10.8207C45.5545 11.4134 46.1413 12.3708 46.1413 13.693C46.1413 15.6079 44.5615 16.3374 43.8394 16.5198C43.6137 16.5653 43.388 16.6565 43.388 16.7477C43.388 16.7933 43.4783 16.8845 43.704 16.9301C45.4642 17.2948 46.9988 18.4802 46.9988 20.6687C47.044 22.766 45.7802 23.997 44.381 24.4529C42.9818 24.9544 41.2667 25 39.9127 25C39.1002 25 38.2427 24.9088 37.6108 24.9088C36.5276 24.9088 35.3992 24.9088 34.1354 24.9544C33.9549 24.8176 33.9549 24.2249 34.1354 24.1793L34.7673 24.0426C35.7603 23.8602 35.8957 23.6778 35.8957 21.6261V13.7386H35.9408ZM39.01 15.9271C39.01 16.5198 39.0551 16.5654 40.1835 16.5654C42.1243 16.5654 42.8464 15.3343 42.8464 13.9666C42.8464 12.0061 41.6278 11.003 40.0932 11.003C39.0551 11.003 39.01 11.1854 39.01 12.1884V15.9271ZM39.01 21.1702C39.01 22.9483 39.2356 24.0426 40.9959 24.0426C42.6659 24.0426 43.5234 22.766 43.5234 20.8967C43.5234 18.9362 42.3951 17.5228 40.2286 17.5228C39.01 17.5228 39.01 17.5228 39.01 18.4347V21.1702Z" fill="#00263E"/>
<path d="M48.8001 13.2396C48.8001 11.1982 48.6647 11.0651 47.6718 10.8432L47.1302 10.7544C46.9497 10.6213 46.9497 10.1331 47.1754 10C48.2585 10.0444 49.3868 10.0444 50.4699 10.0444C51.5531 10.0444 52.6813 10.0444 53.7645 10C53.945 10.1331 53.945 10.6213 53.7645 10.7544L53.2229 10.8432C52.23 11.0207 52.0946 11.1982 52.0946 13.2396V18.3432C52.0946 20.9172 52.4105 23.7574 55.7954 23.7574C58.6838 23.7574 59.5412 21.2722 59.5412 18.2544V15.5917C59.5412 13.8166 59.451 12.1302 59.2253 11.5533C59.0448 11.1095 58.5484 10.9763 57.9165 10.8432L57.3298 10.7544C57.1493 10.5769 57.1944 10.1331 57.3298 10C58.5484 10.0444 59.4058 10.0444 60.3536 10.0444C61.166 10.0444 62.0234 10.0444 62.8809 10C63.0163 10.1331 63.0615 10.5769 62.8809 10.7544L62.4747 10.8432C61.888 10.9763 61.4819 11.1095 61.2562 11.5533C61.0306 12.1302 60.9403 13.8166 60.9403 15.5917V18.0769C60.9403 20.1627 60.7598 22.0266 59.4961 23.4024C58.5032 24.4231 56.8785 25 55.0733 25C53.3583 25 51.8238 24.7337 50.6504 23.7574C49.477 22.8254 48.9806 21.1834 48.9806 18.787V13.2396H48.8001Z" fill="#00263E"/>
<path d="M66.1224 19.9703C65.5897 19.9703 65.5453 20.0148 65.4121 20.4154L64.5686 22.997C64.4354 23.4421 64.4354 23.6202 64.4354 23.7982C64.4354 23.9318 64.7018 24.0653 65.3233 24.1543L65.9892 24.2433C66.1224 24.3769 66.1668 24.911 65.9448 25C65.1901 24.9555 64.391 24.9555 63.4588 24.9555C62.7041 24.9555 62.2157 25 61.1947 25C60.9283 24.8665 60.9727 24.4214 61.1059 24.2433L61.683 24.1988C62.2157 24.1543 62.6597 23.9763 63.0148 23.0861C63.37 22.1958 63.8139 21.1276 64.391 19.5252L66.3888 14.1395C66.8771 12.7596 67.2766 11.9585 67.1878 11.3353C68.2533 11.1128 69.0524 10 69.0968 10C69.3631 10 69.4963 10.089 69.5851 10.4451C69.7627 11.0682 70.029 11.9139 70.5618 13.4718L73.5805 22.1513C74.0245 23.4866 74.2464 23.9763 75.0455 24.1098L75.889 24.2433C76.0222 24.3769 76.0666 24.8665 75.8446 25C74.7792 24.9555 73.5805 24.9555 72.4707 24.9555C71.3609 24.9555 70.5174 24.9555 69.4963 25C69.2744 24.8665 69.23 24.4214 69.4519 24.2433L70.1622 24.1543C70.6506 24.0653 70.7393 23.9318 70.7393 23.7982C70.7393 23.6647 70.6062 23.1306 70.3398 22.2849L69.7627 20.3709C69.6739 20.0148 69.4963 19.9703 68.6972 19.9703H66.1224ZM68.6528 18.7685C69.1412 18.7685 69.2743 18.724 69.0968 18.1454L68.5197 16.365C68.2089 15.4303 67.8094 14.2285 67.6318 13.7389C67.4542 14.2285 67.0103 15.4303 66.6995 16.454L66.1668 18.1009C65.9892 18.6795 66.078 18.7685 66.6107 18.7685H68.6528Z" fill="#00263E"/>
<path d="M89.7819 20.9375C89.7819 22.3661 89.7819 23.7946 89.8284 24.5089C89.6888 24.7768 89.0369 25 88.4782 25C88.4782 25 87.6866 23.8839 86.6157 22.5893L81.2611 16.25C79.9108 14.6875 79.1658 13.75 78.7467 13.3929C78.6536 13.6161 78.6536 13.9732 78.6536 14.8214V19.1071C78.6536 20.8929 78.7467 22.5446 78.9795 23.1696C79.1658 23.6161 79.7245 23.7946 80.3298 23.8839L80.9817 23.9732C81.168 24.1518 81.1214 24.5982 80.9817 24.7321C79.7245 24.6875 78.7933 24.6875 77.8621 24.6875C77.024 24.6875 76.1393 24.6875 75.2546 24.7321C75.1149 24.5982 75.0684 24.1518 75.2546 23.9732L75.6271 23.9286C76.2324 23.7946 76.698 23.6607 76.8843 23.2143C77.1171 22.6339 77.2102 20.9375 77.2102 19.1518V13.4821C77.2102 12.2768 77.2102 11.9196 77.0705 11.6071C76.8843 11.25 76.5583 10.9821 75.7668 10.8482L75.1149 10.7589C74.9287 10.5804 74.9752 10.0446 75.208 10C76.279 10.0446 77.443 10.0446 78.3742 10.0446C79.1658 10.0446 79.8177 10.0446 80.3298 10C80.5627 10.9821 82.0526 12.6786 84.1479 15.0446L86.1035 17.2321C87.1279 18.3929 87.7797 19.1518 88.3385 19.6875C88.4316 19.4643 88.4316 19.1071 88.4316 18.7054V15.625C88.4316 13.8393 88.3385 12.1875 88.1057 11.5625C87.8729 11.1161 87.4072 10.9375 86.7554 10.8482L86.1501 10.7589C85.9638 10.5804 86.0104 10.1339 86.1501 10C87.4072 10.0446 88.2919 10.0446 89.2697 10.0446C90.1078 10.0446 90.9459 10.0446 91.8772 10C92.0168 10.1339 92.0634 10.5804 91.8772 10.7589L91.4581 10.8036C90.8528 10.8929 90.4337 11.0714 90.2009 11.5179C89.9681 12.0982 89.875 13.7946 89.875 15.5804V20.9375H89.7819Z" fill="#00263E"/>
<path d="M96.137 19.9703C95.605 19.9703 95.5607 20.0148 95.4277 20.4154L94.5855 22.997C94.4525 23.4421 94.4082 23.6202 94.4082 23.7982C94.4082 23.9318 94.6742 24.0653 95.2948 24.1543L95.9597 24.2433C96.0927 24.3769 96.137 24.911 95.9153 25C95.1618 24.9555 94.3639 24.9555 93.433 24.9555C92.6794 24.9555 92.1918 25 91.1722 25C90.9506 24.8665 90.9506 24.4214 91.1279 24.2433L91.7042 24.1988C92.2361 24.1543 92.6794 23.9763 93.034 23.0861C93.3886 22.1958 93.8319 21.1276 94.4082 19.5252L96.403 14.1395C96.8906 12.7596 97.2895 11.9585 97.2009 11.3353C98.2647 11.1128 99.0626 10 99.107 10C99.3729 10 99.5059 10.089 99.5946 10.4451C99.7719 11.0682 100.038 11.9139 100.57 13.4718L103.584 22.1513C104.027 23.4866 104.249 23.9763 105.047 24.1098L105.889 24.2433C106.022 24.3769 106.066 24.8665 105.845 25C104.781 24.9555 103.584 24.9555 102.476 24.9555C101.368 24.9555 100.525 24.9555 99.5059 25C99.2843 24.8665 99.24 24.4214 99.4616 24.2433L100.171 24.1543C100.658 24.0653 100.747 23.9318 100.747 23.7982C100.747 23.6647 100.57 23.1306 100.348 22.2849L99.7719 20.3709C99.6389 20.0148 99.5059 19.9703 98.708 19.9703H96.137ZM98.6194 18.7685C99.107 18.7685 99.24 18.724 99.0626 18.1454L98.4864 16.365C98.1761 15.4303 97.7771 14.2285 97.5998 13.7389C97.4225 14.2285 96.9792 15.4303 96.6689 16.454L96.137 18.1009C95.9597 18.6795 96.0483 18.7685 96.5803 18.7685H98.6194Z" fill="#00263E"/>
<path d="M49.4849 34.2083C49.4849 34.7083 49.5263 35.0417 49.6504 35.2083C49.7744 35.375 49.9812 35.4583 50.7256 35.4583C51.6767 35.4583 51.9662 35.4167 52.5865 34.2083C52.6692 34.0833 52.9173 34.125 53 34.2917C52.9586 34.8333 52.7105 35.7083 52.5451 36C52.0075 35.9583 50.9737 35.9583 50.1466 35.9583H48.7406C48.2443 35.9583 47.7481 35.9583 47.0864 36C47.0037 35.9167 46.9624 35.7083 47.0451 35.625L47.4586 35.5833C47.9135 35.5 47.9962 35.4167 47.9962 34.4583V30.5417C47.9962 29.5417 47.9549 29.4583 47.4586 29.4167L47.1691 29.375C47.0451 29.2917 47.0451 29.0833 47.2105 29C47.7481 29.0417 48.2857 29.0417 48.7819 29.0417C49.2782 29.0417 49.8158 29.0417 50.312 29C50.3947 29.0833 50.3947 29.2917 50.312 29.375L50.0225 29.4167C49.5677 29.5 49.4849 29.5833 49.4849 30.5417V34.2083Z" fill="#EE4136"/>
<path d="M56.2143 32.6628C55.7381 32.6628 55.6905 32.6628 55.6905 32.9477V34.4128C55.6905 35.3895 55.7857 35.4709 56.3095 35.5116L56.6905 35.5523C56.7857 35.593 56.7857 35.8372 56.6905 35.9186C56.0238 35.8779 55.4048 35.8779 54.881 35.8779C54.3095 35.8779 53.6905 35.8779 53.0714 35.9186C52.9762 35.8372 52.9762 35.6337 53.0714 35.5523L53.3571 35.5116C53.9286 35.4302 53.9762 35.3488 53.9762 34.3721V30.5465C53.9762 29.5698 53.9286 29.4884 53.3571 29.407L53.0714 29.3663C52.9762 29.2849 52.9762 29.0814 53.0714 29C53.6429 29.0407 54.3095 29.0407 54.881 29.0407C55.4048 29.0407 56.0238 29.0407 56.5476 29C56.6429 29.0814 56.6429 29.2849 56.5476 29.3663L56.3095 29.407C55.7857 29.4884 55.7381 29.5698 55.7381 30.5465V31.8081C55.7381 32.093 55.7381 32.1337 56.2619 32.1337H58.7857C59.3095 32.1337 59.3095 32.1337 59.3095 31.8081V30.6279C59.3095 29.6512 59.2619 29.5698 58.6905 29.5291L58.3571 29.4884C58.2619 29.407 58.2619 29.2035 58.3571 29.1221C59.0238 29.1628 59.5952 29.1628 60.1667 29.1628C60.7381 29.1628 61.3095 29.1628 61.881 29.1221C61.9762 29.2035 61.9762 29.407 61.881 29.4884L61.6429 29.5291C61.0714 29.6105 61.0238 29.6919 61.0238 30.6686V34.4942C61.0238 35.4709 61.1191 35.5116 61.6429 35.593L61.9286 35.6337C62.0238 35.6744 62.0238 35.9186 61.9286 36C61.3095 35.9593 60.7381 35.9593 60.1667 35.9593C59.5476 35.9593 58.9762 35.9593 58.4048 36C58.3095 35.9186 58.3095 35.7151 58.4048 35.6337L58.6905 35.593C59.2619 35.5116 59.3095 35.4302 59.3095 34.4535V32.9884C59.3095 32.7035 59.3095 32.7035 58.7857 32.7035H56.2143V32.6628Z" fill="#EE4136"/>
<path d="M62.9138 30.7209C62.9138 29.6046 62.8241 29.5581 62.3313 29.4651L62.0625 29.4186C61.9728 29.3256 61.9728 29.093 62.1073 29C62.6449 29.0465 63.2274 29.0465 63.7651 29.0465C64.3027 29.0465 64.8852 29.0465 65.4229 29C65.5125 29.093 65.5125 29.3256 65.4229 29.4186L65.154 29.4651C64.6612 29.5581 64.5716 29.6512 64.5716 30.7674V33.5116C64.5716 34.907 64.706 36.3954 66.4534 36.3954C67.8872 36.3954 68.3353 35.093 68.3353 33.4651V32.0233C68.3353 31.093 68.2905 30.1628 68.156 29.8837C68.0664 29.6512 67.7976 29.5581 67.4839 29.5116L67.1703 29.4651C67.0807 29.3721 67.1255 29.1395 67.1703 29.0465C67.7976 29.093 68.2456 29.093 68.6937 29.093C69.097 29.093 69.545 29.093 69.9483 29.0465C69.9931 29.1395 70.0379 29.3721 69.9483 29.4651L69.7242 29.5116C69.4106 29.6047 69.2314 29.6512 69.097 29.8837C68.9625 30.2093 68.9177 31.093 68.9177 32.0233V33.3256C68.9177 34.4419 68.8281 35.4651 68.2008 36.1628C67.708 36.7209 66.8567 37 65.9606 37C65.1092 37 64.3475 36.8605 63.7203 36.3488C63.1378 35.8372 62.869 34.9535 62.869 33.6977V30.7209H62.9138Z" fill="#EE4136"/>
<path d="M73.1835 34.426C73.1835 35.4201 73.2595 35.503 73.6772 35.5858L73.943 35.6272C74.019 35.6686 74.019 35.9172 73.943 36C73.4114 35.9586 72.9557 35.9586 72.5 35.9586C72.0443 35.9586 71.5506 35.9586 71.057 36C70.981 35.9172 70.981 35.7101 71.057 35.6272L71.3228 35.5858C71.7785 35.503 71.8165 35.4201 71.8165 34.426V30.574C71.8165 29.5799 71.7405 29.497 71.3228 29.4142L71.057 29.3728C70.981 29.2899 70.981 29.0828 71.057 29C71.5886 29.0414 72.0443 29.0414 72.5 29.0414C72.9557 29.0414 73.4494 29.0414 73.943 29C74.019 29.0828 74.019 29.2899 73.943 29.3728L73.6772 29.4142C73.2215 29.497 73.1835 29.5799 73.1835 30.574V34.426Z" fill="#EE4136"/>
<path d="M77.509 34.2083C77.509 34.7083 77.5501 35.0417 77.6733 35.2083C77.7965 35.375 78.0019 35.4583 78.7411 35.4583C79.6857 35.4583 79.9732 35.4167 80.5893 34.2083C80.6714 34.0833 80.9179 34.125 81 34.2917C80.9589 34.8333 80.7125 35.7083 80.5482 36C80.0143 35.9583 78.9875 35.9583 78.1251 35.9583H76.7287C76.2358 35.9583 75.743 35.9583 75.0858 36C75.0037 35.9167 74.9626 35.7083 75.0448 35.625L75.4555 35.5833C75.9073 35.5 75.9894 35.4167 75.9894 34.4583V30.5417C75.9894 29.5417 75.9073 29.4583 75.4555 29.4167L75.168 29.375C75.0858 29.2917 75.0858 29.0833 75.2091 29C75.743 29.0417 76.2769 29.0417 76.7697 29.0417C77.2626 29.0417 77.7965 29.0417 78.2893 29C78.3715 29.0833 78.3715 29.2917 78.2893 29.375L78.0019 29.4167C77.5501 29.5 77.4679 29.5833 77.4679 30.5417V34.2083H77.509Z" fill="#EE4136"/>
<path d="M83.8991 34.2083C83.8991 34.7083 83.9473 35.0417 84.0921 35.2083C84.2368 35.375 84.4781 35.4583 85.3465 35.4583C86.4561 35.4583 86.7939 35.4167 87.5175 34.2083C87.614 34.0833 87.9035 34.125 88 34.2917C87.9518 34.8333 87.6623 35.7083 87.4693 36C86.8421 35.9583 85.6359 35.9583 84.671 35.9583H83.0307C82.4517 35.9583 81.8728 35.9583 81.1008 36C81.0044 35.9167 80.9561 35.7083 81.0526 35.625L81.5351 35.5833C82.0658 35.5 82.1623 35.4167 82.1623 34.4583V30.5417C82.1623 29.5417 82.0658 29.4583 81.5351 29.4167L81.1973 29.375C81.0526 29.2917 81.0526 29.0833 81.2456 29C81.8728 29.0417 82.5 29.0417 83.0789 29.0417C83.6579 29.0417 84.2851 29.0417 84.864 29C84.9605 29.0833 84.9605 29.2917 84.864 29.375L84.5263 29.4167C83.9956 29.5 83.8991 29.5833 83.8991 30.5417V34.2083Z" fill="#EE4136"/>
<path d="M90.1937 34.426C90.1937 35.4201 90.2313 35.503 90.6813 35.5858L90.9438 35.6272C91.0188 35.6686 91.0188 35.9172 90.9438 36C90.4187 35.9586 89.9687 35.9586 89.5187 35.9586C89.0687 35.9586 88.5813 35.9586 88.0563 36C87.9812 35.9172 87.9812 35.7101 88.0563 35.6272L88.3187 35.5858C88.7687 35.503 88.8063 35.4201 88.8063 34.426V30.574C88.8063 29.5799 88.7312 29.497 88.3187 29.4142L88.0563 29.3728C87.9812 29.2899 87.9812 29.0828 88.0563 29C88.5813 29.0414 89.0312 29.0414 89.5187 29.0414C89.9687 29.0414 90.4562 29.0414 90.9438 29C91.0188 29.0828 91.0188 29.2899 90.9438 29.3728L90.6813 29.4142C90.2313 29.497 90.1937 29.5799 90.1937 30.574V34.426Z" fill="#EE4136"/>
<path d="M94.5424 31.7427C94.5424 32.0292 94.5424 32.0702 94.8271 32.0702H95.5186C96.0475 32.0702 96.1695 31.9883 96.2915 31.4971L96.3322 31.2515C96.4136 31.1696 96.6576 31.1696 96.6983 31.2515C96.6983 31.5789 96.6576 31.9474 96.6576 32.3567C96.6576 32.7661 96.6576 33.1345 96.6983 33.462C96.6576 33.5439 96.3729 33.5848 96.3322 33.462L96.2915 33.2164C96.1695 32.7251 96.0475 32.6433 95.5186 32.6433H94.8271C94.5424 32.6433 94.5424 32.6433 94.5424 32.9708V34.1988C94.5424 34.6901 94.583 35.0175 94.7051 35.1813C94.8271 35.386 95.0305 35.4678 95.8034 35.4678C96.6983 35.4678 97.0644 35.4269 97.6339 34.2807C97.7153 34.1579 97.9593 34.1988 98 34.3216C97.9593 34.8538 97.7153 35.7135 97.5525 36C97.0237 35.9591 96.0068 35.9591 95.1932 35.9591H93.8509C93.3627 35.9591 92.8339 35.9591 92.061 36C91.9797 35.9181 91.9797 35.6725 92.061 35.6316L92.5492 35.5497C92.9966 35.4678 93.078 35.4269 93.078 34.4444V30.5146C93.078 29.5731 92.9966 29.4912 92.5492 29.4094L92.3051 29.3684C92.2237 29.2865 92.2237 29.0819 92.3458 29C92.8339 29.0409 93.322 29.0409 93.8102 29.0409H96.0068C96.6576 29.0409 97.2678 29.0409 97.3898 29C97.3898 29.1637 97.4712 29.9006 97.5119 30.5965C97.4712 30.7193 97.2271 30.7193 97.1458 30.6374C97.0237 30.269 96.9017 29.9825 96.739 29.8187C96.5356 29.614 96.2508 29.4912 95.722 29.4912H94.9085C94.583 29.4912 94.583 29.5322 94.583 29.9006V31.7427H94.5424Z" fill="#EE4136"/>
<path d="M99.8401 30.7396C99.8401 29.7041 99.7984 29.5799 99.3812 29.497L99.0892 29.4556C98.9641 29.4142 98.9641 29.1243 99.1309 29.0828C99.9236 29.0414 100.758 29 101.759 29C102.677 29 103.428 29.1243 103.845 29.3728C104.471 29.7456 104.763 30.2426 104.763 30.9053C104.763 31.858 104.137 32.2308 103.636 32.4793C103.511 32.5207 103.511 32.6036 103.595 32.7278C104.304 34.1361 104.721 34.9231 105.222 35.3373C105.514 35.5444 105.764 35.6272 105.931 35.6272C106.014 35.6686 106.014 35.8343 105.973 35.9172C105.806 36 105.472 36 105.138 36C104.179 36 103.553 35.6686 103.094 34.8817C102.76 34.3432 102.51 33.8047 102.26 33.2663C102.135 32.9763 101.968 32.8935 101.717 32.8935C101.342 32.8935 101.342 32.9349 101.342 33.142V34.426C101.342 35.3787 101.384 35.4615 101.884 35.5444L102.176 35.5858C102.26 35.6272 102.26 35.8757 102.176 35.9586C101.634 35.9172 101.133 35.9172 100.633 35.9172C100.09 35.9172 99.6315 35.9172 99.0892 35.9586C99.0058 35.8757 99.0058 35.6272 99.0892 35.5858L99.3812 35.5444C99.8401 35.4615 99.9236 35.3787 99.9236 34.426V30.7396H99.8401ZM101.3 32.0651C101.3 32.4379 101.342 32.4793 101.968 32.4793C102.343 32.4793 102.552 32.3964 102.76 32.1893C102.927 32.0237 103.136 31.6923 103.136 31.071C103.136 30.1183 102.593 29.5385 101.759 29.5385C101.342 29.5385 101.3 29.5799 101.3 30.0769V32.0651Z" fill="#EE4136"/>
<path d="M6.19841 6C6.19841 6 11.8335 5.46774 14.7137 6C14.7137 6 15.298 5.85484 14.7971 5.27419C14.7971 5.27419 13.044 3 10.5813 3C8.16026 3 6.32364 5.27419 6.19841 5.37097C6.07319 5.46774 5.82274 5.85484 6.19841 6Z" fill="#00263E"/>
<path d="M19.9557 22.3562C19.9557 21.9187 19.6896 21.6125 19.2461 21.6125C19.0687 21.6125 18.8914 21.7 18.8914 21.7H18.847V21.7437C17.3392 24.0187 14.8115 25.375 12.0621 25.375C7.6275 25.375 3.99113 21.8313 3.99113 17.4125C3.99113 13.0375 7.6275 9.45 12.0621 9.45C14.7672 9.45 17.2949 10.8063 18.8027 13.0375L18.8914 13.1688H19.0687C19.3348 13.2563 19.6009 13.2125 19.7783 13.0375C19.9557 12.8625 20 12.5563 20 12.4688V12.425H19.9557C18.0931 9.05625 14.5011 7 10.643 7C4.78936 7 0 11.6813 0 17.5C0 23.275 4.78936 28 10.643 28C14.5011 28 18.0931 25.9 19.9557 22.575L20 22.4875V22.3562H19.9557Z" fill="#00263E"/>
<path d="M112 0H111V40H112V0Z" fill="#EE4136"/>
<path d="M122.029 11.957C122.029 9.45091 121.855 9.27504 120.641 9.09917L119.644 8.92331C119.428 8.74744 119.428 8.1319 119.644 8C121.335 8.04397 122.635 8.08793 123.893 8.08793C125.15 8.08793 126.45 8.04397 127.837 8C128.054 8.17587 128.054 8.79141 127.837 8.92331L127.144 9.05521C125.93 9.27504 125.757 9.45091 125.757 11.957V21.5858C125.757 23.6962 125.583 25.5428 125.15 26.7299C124.239 29.0602 122.332 30.8628 118.994 30.9947C118.257 31.0387 117 30.8188 117 29.9395C117 29.4119 117.303 28.7524 117.694 28.4007C117.91 28.1808 118.127 28.0489 118.431 28.0489C118.864 28.0489 119.341 28.3567 119.774 28.7084C120.208 29.0602 120.641 29.3679 120.945 29.3679C121.552 29.3679 121.682 28.1369 121.768 27.1696C121.812 26.7299 121.985 24.7514 121.985 21.9375V11.957H122.029Z" fill="#E29537"/>
<path d="M135.766 15.0667C135.766 15.8222 135.812 15.8667 136.539 15.8667H138.45C139.905 15.8667 140.224 15.6889 140.497 14.4L140.633 13.7333C140.815 13.5111 141.498 13.5111 141.634 13.7778C141.588 14.6222 141.543 15.6 141.543 16.6222C141.543 17.6444 141.588 18.6222 141.634 19.4667C141.498 19.6889 140.815 19.7333 140.633 19.5111L140.497 18.8444C140.224 17.5556 139.905 17.3333 138.45 17.3333H136.539C135.812 17.3333 135.766 17.3778 135.766 18.1778V21.3778C135.766 22.6222 135.857 23.4667 136.221 23.9556C136.585 24.4444 137.085 24.6667 139.132 24.6667C141.543 24.6667 142.453 24.5778 143.999 21.5556C144.227 21.2444 144.909 21.3778 145 21.6889C144.909 23.1111 144.227 25.2889 143.863 26C142.407 25.9556 139.769 25.9111 137.495 25.9111H133.901C132.582 25.9111 131.217 25.9556 129.171 26C128.943 25.8222 128.943 25.2 129.171 25.0667L130.444 24.8889C131.672 24.7111 131.854 24.5333 131.854 22.0444V11.9111C131.854 9.46667 131.672 9.28889 130.444 9.06667L129.762 8.93333C129.534 8.75556 129.534 8.13333 129.807 8C131.081 8.04444 132.446 8.08889 133.765 8.08889H139.633C141.407 8.08889 142.953 8.04444 143.317 8C143.362 8.44444 143.544 10.3556 143.681 12.1778C143.59 12.4889 142.953 12.5333 142.68 12.2667C142.362 11.3333 141.998 10.5333 141.634 10.1333C141.088 9.6 140.269 9.28889 138.95 9.28889H136.721C135.812 9.28889 135.812 9.33333 135.812 10.3556V15.0667H135.766Z" fill="#E29537"/>
<path d="M171.012 9.14734C170.396 9.28502 170 9.51449 169.824 9.74396C169.517 10.2029 169.077 11.0749 168.373 12.8188C167.054 16.0773 164.151 23.0072 162.876 26.6328C162.7 26.7705 162.348 26.8623 161.996 26.8623C161.688 26.8623 161.468 26.7705 161.293 26.6328C160.985 25.9444 160.589 24.9807 160.281 24.2005L159.182 21.5386C158.83 20.6667 158.478 19.7947 158.214 19.3816C157.994 19.8406 157.642 20.529 157.29 21.3092L156.015 24.1546C155.619 25.0266 155.311 25.8527 154.916 26.7705C154.784 26.9082 154.432 27 154.036 27C153.728 27 153.596 26.9082 153.332 26.7705C152.893 25.6232 151.837 23.099 150.914 21.0338L146.56 11.0749C145.856 9.4227 145.68 9.28502 144.8 9.10145L144.141 8.96377C143.921 8.68841 143.965 8.13768 144.229 8C145.196 8.04589 146.34 8.09179 147.703 8.09179C148.891 8.09179 149.902 8.04589 150.914 8C151.133 8.09179 151.221 8.82609 150.958 8.96377L150.474 9.05556C149.99 9.14734 149.814 9.28502 149.814 9.4686C149.814 9.65217 150.386 10.9831 151.221 12.9106L153.86 19.0604C154.608 20.8043 155.004 21.5845 155.311 22.2271C155.619 21.6763 156.235 20.3454 156.675 19.3816L157.027 18.5556C157.203 18.0966 157.29 17.7295 157.29 17.5918C157.29 17.4082 157.115 16.8575 156.983 16.5821L154.432 10.7077C153.816 9.33092 153.64 9.10145 152.629 9.00966L152.365 8.96377C152.101 8.7343 152.145 8.09179 152.453 8C153.596 8.04589 154.652 8.09179 155.795 8.09179C157.159 8.09179 158.17 8.04589 158.874 8C159.182 8.09179 159.182 8.82609 158.962 8.96377L158.522 9.05556C158.214 9.14734 157.818 9.23913 157.818 9.42271C157.818 9.65217 157.906 9.97343 158.038 10.2488L158.83 12.1763C159.05 12.7729 159.401 13.5072 159.665 14.0121C159.929 13.4155 160.237 12.7271 160.501 12.1304L160.721 11.5797C161.161 10.5242 161.512 9.69807 161.512 9.51449C161.512 9.33092 161.424 9.23913 160.985 9.14734L160.017 8.96377C159.841 8.78019 159.841 8.13768 160.105 8C160.897 8.04589 161.82 8.09179 162.7 8.09179C163.755 8.09179 164.723 8.04589 165.427 8C165.646 8.13768 165.69 8.82609 165.471 9.00966L164.723 9.19324C163.799 9.37681 163.623 9.37681 162.7 11.0749C162.04 12.2222 161.381 13.599 161.029 14.3333C160.809 14.8382 160.457 15.6184 160.457 15.8019C160.457 15.8937 160.501 16.0314 160.677 16.4903L161.908 19.2899C162.612 20.8043 162.964 21.7222 163.14 22.0894C164.415 18.8768 165.866 15.343 167.186 11.9469C167.362 11.4879 167.889 10.0193 167.889 9.69807C167.889 9.4227 167.45 9.33092 167.098 9.19324L166.526 9.00966C166.306 8.78019 166.35 8.18358 166.614 8.04589C167.45 8.09179 168.549 8.13768 169.341 8.13768C170.264 8.13768 171.056 8.09179 171.803 8.04589C172.023 8.18358 172.067 8.78019 171.891 9.00966L171.012 9.14734Z" fill="#E29537"/>
<path d="M177.343 15.0667C177.343 15.8222 177.386 15.8667 178.068 15.8667H179.859C181.224 15.8667 181.522 15.6889 181.778 14.4L181.906 13.7333C182.077 13.5111 182.716 13.5111 182.844 13.7778C182.802 14.6222 182.759 15.6 182.759 16.6222C182.759 17.6444 182.802 18.6222 182.844 19.4667C182.716 19.6889 182.077 19.7333 181.906 19.5111L181.778 18.8444C181.522 17.5556 181.224 17.3333 179.859 17.3333H178.068C177.386 17.3333 177.343 17.3778 177.343 18.1778V21.3778C177.343 22.6222 177.429 23.4667 177.77 23.9556C178.111 24.4444 178.58 24.6667 180.499 24.6667C182.759 24.6667 183.612 24.5778 185.062 21.5556C185.275 21.2444 185.915 21.3778 186 21.6889C185.915 23.1111 185.275 25.2889 184.934 26C183.569 25.9556 181.096 25.9111 178.964 25.9111H175.595C174.358 25.9111 173.079 25.9556 171.16 26C170.947 25.8222 170.947 25.2 171.16 25.0667L172.354 24.8889C173.505 24.7111 173.676 24.5333 173.676 22.0444V11.9111C173.676 9.46667 173.505 9.28889 172.354 9.06667L171.714 8.93333C171.501 8.75556 171.501 8.13333 171.757 8C172.951 8.04444 174.23 8.08889 175.467 8.08889H180.968C182.631 8.08889 184.081 8.04444 184.422 8C184.465 8.44444 184.635 10.3556 184.763 12.1778C184.678 12.4889 184.081 12.5333 183.825 12.2667C183.527 11.3333 183.186 10.5333 182.844 10.1333C182.333 9.6 181.565 9.28889 180.328 9.28889H178.239C177.386 9.28889 177.386 9.33333 177.386 10.3556V15.0667H177.343Z" fill="#E29537"/>
<path d="M193.204 21.4109C193.204 22.6584 193.291 23.5495 193.635 23.995C193.98 24.4406 194.455 24.6634 196.352 24.6634C198.723 24.6634 199.456 24.5743 201.008 21.4554C201.224 21.1881 201.828 21.2772 202 21.6337C201.871 23.0594 201.224 25.2871 200.879 26C199.499 25.9554 196.999 25.9109 194.843 25.9109H191.35C190.143 25.9109 188.85 25.9554 187.211 26C186.996 25.8218 186.909 25.198 187.125 25.0644L188.117 24.9307C189.281 24.7525 189.453 24.5743 189.453 22.0347V11.9208C189.453 9.42574 189.281 9.15842 188.117 9.02475L187.34 8.93564C187.082 8.75743 187.082 8.13366 187.384 8C188.763 8.04455 190.057 8.08911 191.307 8.08911C192.558 8.08911 193.851 8.04455 195.188 8C195.403 8.17822 195.403 8.80198 195.188 8.93564L194.498 9.02475C193.334 9.20297 193.161 9.42574 193.161 11.9208V21.4109H193.204Z" fill="#E29537"/>
<path d="M205.307 12.3892C205.307 9.68473 205.262 9.41872 204.103 9.24138L203.39 9.15271C203.123 9.0197 203.123 8.35468 203.435 8.22167C205.441 8.08867 207.58 8 210.121 8C212.439 8 214.401 8.35468 215.426 8.97537C216.986 9.9064 217.788 11.2365 217.788 12.9655C217.788 15.3596 216.184 16.3793 214.935 17C214.668 17.133 214.668 17.3103 214.802 17.5764C216.585 21.1675 217.699 23.2069 218.992 24.3153C219.705 24.8916 220.418 25.0246 220.82 25.069C221.042 25.202 221.042 25.601 220.909 25.7783C220.463 25.9557 219.616 26 218.769 26C216.273 26 214.713 25.1133 213.509 23.1626C212.662 21.7438 212.038 20.4138 211.414 18.9951C211.102 18.2857 210.656 18.064 209.987 18.064C209.051 18.064 209.007 18.1084 209.007 18.6404V21.9212C209.007 24.4039 209.185 24.5813 210.389 24.803L211.102 24.936C211.28 25.069 211.28 25.734 211.102 25.867C209.675 25.8227 208.427 25.7783 207.134 25.7783C205.797 25.7783 204.594 25.8227 203.167 25.867C202.944 25.6897 202.944 25.069 203.167 24.936L203.88 24.803C205.084 24.5813 205.262 24.4039 205.262 21.9212V12.3892H205.307ZM209.007 15.803C209.007 16.734 209.096 16.8227 210.701 16.8227C211.681 16.8227 212.261 16.601 212.751 16.069C213.197 15.6256 213.732 14.7389 213.732 13.1872C213.732 10.7488 212.305 9.19704 210.21 9.19704C209.096 9.19704 209.051 9.28571 209.051 10.5714V15.803H209.007Z" fill="#E29537"/>
<path d="M229.741 22.0347C229.741 24.5297 229.922 24.7525 231.143 24.9307L232.228 25.0644C232.409 25.2426 232.409 25.8663 232.228 26C230.464 25.9554 229.108 25.9109 227.797 25.9109C226.485 25.9109 225.129 25.9554 223.501 26C223.275 25.8218 223.275 25.198 223.501 25.0644L224.45 24.9307C225.671 24.7525 225.852 24.5743 225.852 22.0347V20.698C225.852 19.3614 225.807 18.9158 225.129 17.4901L221.873 10.8515C221.33 9.73762 221.059 9.29208 220.109 9.15842L219.16 8.9802C218.934 8.75743 218.934 8.13366 219.25 8.04455C220.471 8.08911 221.511 8.13366 223.094 8.13366C224.767 8.13366 226.169 8.08911 227.118 8.04455C227.344 8.13366 227.435 8.75743 227.163 8.9802L226.214 9.20297C225.716 9.29208 225.536 9.42574 225.536 9.42574C225.536 9.64852 225.671 10.0495 226.259 11.297L227.57 14.1931C227.977 15.0842 228.61 16.3317 228.927 17C229.741 15.6634 230.555 13.9257 231.278 12.5446C232.273 10.6287 232.59 9.82673 232.59 9.4703C232.59 9.29208 232.138 9.15842 231.504 9.02475L230.962 8.93564C230.736 8.80198 230.736 8.13366 231.007 8C232.092 8.04455 233.087 8.08911 234.082 8.08911C235.122 8.08911 235.981 8.04455 236.75 8C237.066 8.08911 237.066 8.75743 236.84 8.93564L236.162 9.11386C235.665 9.20297 235.032 9.38119 234.715 9.78218C234.308 10.3168 233.63 11.2525 232.318 13.6139L230.6 16.6881C229.877 17.9356 229.696 18.6485 229.696 20.1634V22.0347H229.741Z" fill="#E29537"/>
</svg>
