<svg width="22" height="21" viewBox="0 0 22 21" fill="none" xmlns="http://www.w3.org/2000/svg">
<g clip-path="url(#clip0_189_498)">
<path d="M10.7802 7.17411L13.7863 10.1802L13.8006 10.0228C13.8006 8.44335 12.517 7.15979 10.9376 7.15979L10.7802 7.17411Z" fill="#24B6F2"/>
<path d="M10.9376 5.25116C13.5716 5.25116 15.7093 7.38887 15.7093 10.0228C15.7093 10.6384 15.5852 11.2253 15.3705 11.7645L18.1619 14.5559C19.6029 13.3534 20.7386 11.7979 21.44 10.0228C19.7843 5.83333 15.7141 2.86536 10.9377 2.86536C9.60158 2.86536 8.32281 3.10392 7.13467 3.53337L9.19602 5.58993C9.73516 5.38 10.3221 5.25116 10.9376 5.25116Z" fill="#24B6F2"/>
<path d="M1.39432 2.65061L3.57018 4.82648L4.00442 5.26071C2.42978 6.49179 1.18438 8.12848 0.440002 10.0228C2.09101 14.2123 6.16597 17.1803 10.9376 17.1803C12.4169 17.1803 13.8292 16.894 15.1224 16.3738L15.528 16.7794L18.3099 19.5661L19.5266 18.3541L2.61108 1.43384L1.39432 2.65061ZM6.67178 7.92329L8.14622 9.39772C8.10327 9.60292 8.07464 9.80807 8.07464 10.0228C8.07464 11.6022 9.3582 12.8858 10.9376 12.8858C11.1524 12.8858 11.3575 12.8572 11.558 12.8142L13.0324 14.2886C12.3978 14.6036 11.6916 14.7945 10.9376 14.7945C8.30368 14.7945 6.16597 12.6567 6.16597 10.0228C6.16597 9.26889 6.35685 8.56267 6.67178 7.92329Z" fill="#24B6F2"/>
</g>
<defs>
<clipPath id="clip0_189_498">
<rect width="21" height="21" fill="white" transform="translate(0.440002)"/>
</clipPath>
</defs>
</svg>
