<svg width="24" height="12" viewBox="0 0 24 12" fill="none" xmlns="http://www.w3.org/2000/svg">
<g clip-path="url(#clip0_359_120)">
<path d="M13.5406 2.74181e-06C10.3212 2.74181e-06 7.10908 2.74181e-06 3.88966 2.74181e-06C3.75127 2.74181e-06 3.61288 2.74181e-06 3.48177 0.0340743C3.21955 0.0954031 3.05203 0.313462 3.05931 0.558777C3.06659 0.797278 3.22684 1.00171 3.48177 1.06304C3.58374 1.09029 3.70028 1.09711 3.80225 1.09711C10.2921 1.09711 16.7746 1.09711 23.2645 1.09711C23.3737 1.09711 23.483 1.09029 23.585 1.06304C23.8326 1.00171 24.0001 0.790463 24.0001 0.551962C24.0001 0.313461 23.8399 0.0954034 23.5922 0.040889C23.4611 0.00681746 23.3227 0.00681746 23.1916 0.00681746C19.9722 3.09944e-06 16.7528 2.74181e-06 13.5406 2.74181e-06Z" fill="#333333" fill-opacity="0.5"/>
<path d="M13.5115 10.9097C10.3139 10.9097 7.11632 10.9097 3.91875 10.9097C3.80949 10.9097 3.70024 10.9097 3.59098 10.9165C3.28506 10.9438 3.06655 11.1618 3.05926 11.4344C3.05198 11.707 3.26321 11.9455 3.55456 11.9864C3.65653 12.0068 3.75122 12 3.85319 12C10.3066 12 16.7527 12 23.2062 12C23.716 12 23.9928 11.8092 24.0001 11.4617C24.0074 11.1073 23.7306 10.9165 23.2134 10.9165C19.9794 10.9097 16.7455 10.9097 13.5115 10.9097Z" fill="#333333" fill-opacity="0.5"/>
<path d="M13.5333 6.54175C16.7381 6.54175 19.9503 6.54175 23.1551 6.54175C23.2571 6.54175 23.3518 6.54175 23.4538 6.53493C23.7597 6.51449 23.9855 6.29643 23.9928 6.02386C24.0073 5.74447 23.7815 5.49916 23.4756 5.45827C23.3955 5.45146 23.3154 5.45146 23.228 5.45146C16.76 5.45146 10.292 5.45146 3.82401 5.45146C3.73661 5.45146 3.64192 5.44464 3.55451 5.45827C3.26316 5.49916 3.04465 5.73766 3.05193 6.01023C3.05922 6.2828 3.27773 6.50768 3.58365 6.53493C3.69291 6.54175 3.80216 6.54175 3.91142 6.54175C7.12356 6.54175 10.3284 6.54175 13.5333 6.54175Z" fill="#333333" fill-opacity="0.5"/>
<path d="M0.582701 10.9097C0.904518 10.9097 1.1654 11.1538 1.1654 11.4549C1.1654 11.7559 0.904518 12 0.582701 12C0.260884 12 0 11.7559 0 11.4549C0 11.1538 0.260884 10.9097 0.582701 10.9097Z" fill="#333333" fill-opacity="0.5"/>
<path d="M0.582701 5.45146C0.904518 5.45146 1.1654 5.69553 1.1654 5.9966C1.1654 6.29768 0.904518 6.54175 0.582701 6.54175C0.260884 6.54175 0 6.29768 0 5.9966C0 5.69553 0.260884 5.45146 0.582701 5.45146Z" fill="#333333" fill-opacity="0.5"/>
<path d="M0.582701 1.18017e-05C0.904518 1.18017e-05 1.1654 0.244081 1.1654 0.545157C1.1654 0.846232 0.904518 1.0903 0.582701 1.0903C0.260884 1.0903 0 0.846232 0 0.545157C0 0.244081 0.260884 1.18017e-05 0.582701 1.18017e-05Z" fill="#333333" fill-opacity="0.5"/>
</g>
<defs>
<clipPath id="clip0_359_120">
<rect width="24" height="12" fill="white" transform="matrix(1 0 0 -1 0 12)"/>
</clipPath>
</defs>
</svg>
