<svg width="15" height="15" viewBox="0 0 15 15" fill="none" xmlns="http://www.w3.org/2000/svg">
<path d="M7.90589 14.3918C7.63666 14.3918 7.36743 14.3918 7.09821 14.3918C7.05513 14.3846 7.01206 14.3738 6.96898 14.3666C6.67821 14.3235 6.38027 14.3019 6.0931 14.2408C4.41312 13.874 3.04186 13.0145 2.00444 11.6371C1.33317 10.7488 0.905999 9.75269 0.715746 8.65944C0.672669 8.4077 0.647542 8.15597 0.615234 7.90423C0.615234 7.63451 0.615234 7.3648 0.615234 7.09508C0.626003 6.99798 0.636772 6.90089 0.647542 6.80379C0.809077 5.34372 1.3583 4.04908 2.33469 2.95223C3.63416 1.49576 5.26747 0.708185 7.21667 0.614683C8.57716 0.549951 9.85509 0.866419 11.0181 1.57488C12.8058 2.66453 13.9043 4.24687 14.2919 6.3111C14.3386 6.57003 14.3637 6.83256 14.3996 7.09508C14.3996 7.3648 14.3996 7.63451 14.3996 7.90423C14.3781 8.08045 14.3637 8.26026 14.335 8.43647C14.1519 9.66279 13.6925 10.7704 12.9243 11.745C11.8402 13.1224 10.4258 13.9639 8.70639 14.2839C8.43716 14.3307 8.17152 14.3559 7.90589 14.3918ZM2.28444 11.2379C2.55725 10.4611 2.96648 9.78865 3.52288 9.20607C4.08287 8.62348 4.73978 8.18474 5.49721 7.88265C4.08646 6.55924 4.32697 4.56693 5.41464 3.53122C6.5454 2.45595 8.28639 2.39122 9.42074 3.38018C10.0094 3.89444 10.372 4.53097 10.4617 5.30776C10.5766 6.3147 10.2356 7.16341 9.5033 7.87906C11.0648 8.53357 12.1345 9.6448 12.7161 11.2271C14.2632 9.19528 14.5719 5.68176 12.2243 3.15002C9.79406 0.531969 5.87413 0.344966 3.21058 2.71488C0.593696 5.05242 0.486006 8.78171 2.28444 11.2379ZM7.49666 13.9243C7.59358 13.9243 7.6941 13.9279 7.79102 13.9243C7.90589 13.9207 8.02435 13.9135 8.13922 13.8991C9.79047 13.7157 11.1761 13.0073 12.2925 11.7774C12.3535 11.709 12.3715 11.6551 12.3427 11.5652C11.8151 9.94689 10.7597 8.83565 9.16228 8.24947C9.10484 8.22789 9.01869 8.23508 8.96484 8.26385C7.98845 8.77452 7.01923 8.77452 6.04284 8.26745C5.9854 8.23868 5.89566 8.22789 5.83464 8.24947C4.23723 8.83925 3.18186 9.95048 2.65777 11.5688C2.63264 11.6515 2.64341 11.7054 2.70443 11.7702C3.98954 13.1871 5.59054 13.8919 7.49666 13.9243ZM7.50743 8.17755C8.90382 8.17395 10.031 7.04473 10.031 5.653C10.031 4.26845 8.88587 3.13204 7.49666 3.13564C6.10745 3.13923 4.96234 4.28643 4.97311 5.66378C4.98388 7.06272 6.11104 8.18114 7.50743 8.17755Z" fill="#E29537" stroke="#E29537" stroke-width="0.2" stroke-miterlimit="10"/>
</svg>
