<svg width="42" height="42" viewBox="0 0 42 42" fill="none" xmlns="http://www.w3.org/2000/svg">
<path d="M34.125 0C36.2943 0 38.1491 0.770182 39.6895 2.31055C41.2298 3.85091 42 5.70573 42 7.875V34.125C42 36.2943 41.2298 38.1491 39.6895 39.6895C38.1491 41.2298 36.2943 42 34.125 42H28.9844V25.7305H34.4258L35.2461 19.3867H28.9844V15.3398C28.9844 14.319 29.1986 13.5534 29.627 13.043C30.0553 12.5326 30.8893 12.2773 32.1289 12.2773L35.4648 12.25V6.58984C34.3164 6.42578 32.694 6.34375 30.5977 6.34375C28.1185 6.34375 26.1361 7.07292 24.6504 8.53125C23.1647 9.98958 22.4219 12.0495 22.4219 14.7109V19.3867H16.9531V25.7305H22.4219V42H7.875C5.70573 42 3.85091 41.2298 2.31055 39.6895C0.770182 38.1491 0 36.2943 0 34.125V7.875C0 5.70573 0.770182 3.85091 2.31055 2.31055C3.85091 0.770182 5.70573 0 7.875 0H34.125Z" fill="#0E5169"/>
</svg>
