<svg width="5" height="14" viewBox="0 0 5 14" fill="none" xmlns="http://www.w3.org/2000/svg">
<path d="M0.520833 11.6H1.04167V7.64999H0.520833C0.233177 7.64999 0 7.40515 0 7.10311V5.79688C0 5.49484 0.233177 5.25 0.520833 5.25H3.4375C3.72516 5.25 3.95833 5.49484 3.95833 5.79688V11.6H4.47917C4.76682 11.6 5 11.8448 5 12.1469V13.4531C5 13.7552 4.76682 14 4.47917 14H0.520833C0.233177 14 0 13.7552 0 13.4531V12.1469C0 11.8448 0.233177 11.6 0.520833 11.6ZM2.5 0C1.46445 0 0.625 0.881426 0.625 1.96875C0.625 3.05607 1.46445 3.9375 2.5 3.9375C3.53555 3.9375 4.375 3.05607 4.375 1.96875C4.375 0.881426 3.53552 0 2.5 0Z" fill="#E29537"/>
</svg>
