<svg width="46" height="46" viewBox="0 0 46 46" fill="none" xmlns="http://www.w3.org/2000/svg">
<path d="M45.3672 13.7631C45.342 11.8697 44.9875 9.99506 44.3197 8.22313C43.7406 6.72851 42.856 5.37112 41.7226 4.2377C40.5892 3.10428 39.2318 2.21975 37.7372 1.64063C35.988 0.984018 34.1401 0.628978 32.2722 0.590625C29.8672 0.483125 29.1047 0.453125 22.9997 0.453125C16.8947 0.453125 16.1122 0.453125 13.7247 0.590625C11.8576 0.62926 10.0106 0.984295 8.26219 1.64063C6.76733 2.21935 5.40974 3.10374 4.27627 4.23721C3.1428 5.37068 2.25841 6.72827 1.67969 8.22313C1.02176 9.97096 0.667495 11.8184 0.632187 13.6856C0.524687 16.0931 0.492188 16.8556 0.492188 22.9606C0.492188 29.0656 0.492187 29.8456 0.632187 32.2356C0.669687 34.1056 1.02219 35.9506 1.67969 37.7031C2.25938 39.1975 3.14443 40.5546 4.27828 41.6876C5.41213 42.8205 6.76985 43.7046 8.26469 44.2831C10.0083 44.9661 11.8556 45.3466 13.7272 45.4081C16.1347 45.5156 16.8972 45.5481 23.0022 45.5481C29.1072 45.5481 29.8897 45.5481 32.2772 45.4081C34.1451 45.3713 35.9931 45.0171 37.7422 44.3606C39.2364 43.7808 40.5935 42.8961 41.7268 41.7627C42.8601 40.6294 43.7449 39.2724 44.3247 37.7781C44.9822 36.0281 45.3347 34.1831 45.3722 32.3106C45.4797 29.9056 45.5122 29.1431 45.5122 23.0356C45.5072 16.9306 45.5072 16.1556 45.3672 13.7631ZM22.9847 34.5056C16.5997 34.5056 11.4272 29.3331 11.4272 22.9481C11.4272 16.5631 16.5997 11.3906 22.9847 11.3906C26.0499 11.3906 28.9896 12.6083 31.1571 14.7757C33.3245 16.9432 34.5422 19.8829 34.5422 22.9481C34.5422 26.0134 33.3245 28.9531 31.1571 31.1205C28.9896 33.288 26.0499 34.5056 22.9847 34.5056ZM35.0022 13.6581C34.6482 13.6585 34.2976 13.589 33.9705 13.4537C33.6433 13.3183 33.3461 13.1198 33.0958 12.8695C32.8455 12.6192 32.647 12.322 32.5117 11.9948C32.3763 11.6677 32.3069 11.3171 32.3072 10.9631C32.3072 10.6094 32.3769 10.2591 32.5122 9.93227C32.6476 9.60545 32.846 9.30849 33.0962 9.05836C33.3463 8.80822 33.6433 8.6098 33.9701 8.47442C34.2969 8.33905 34.6472 8.26938 35.0009 8.26938C35.3547 8.26938 35.705 8.33905 36.0318 8.47442C36.3586 8.6098 36.6556 8.80822 36.9057 9.05836C37.1558 9.30849 37.3543 9.60545 37.4896 9.93227C37.625 10.2591 37.6947 10.6094 37.6947 10.9631C37.6947 12.4531 36.4897 13.6581 35.0022 13.6581Z" fill="#00263D"/>
</svg>
