<svg width="20" height="16" viewBox="0 0 20 16" fill="none" xmlns="http://www.w3.org/2000/svg">
<path d="M7.09554 9.76795C7.09554 10.3397 7.09554 10.8824 7.09554 11.4251C7.09554 12.1906 7.11027 12.961 7.09064 13.7266C7.07592 14.342 6.77167 14.8023 6.19752 15.0542C5.63318 15.3013 5.09338 15.219 4.61738 14.8265C4.25424 14.5261 4.08739 14.1288 4.08739 13.6588C4.08739 12.4329 4.08739 11.2022 4.08739 9.9763C4.08739 9.91331 4.08739 9.84548 4.08739 9.75826C3.56722 9.79702 3.09122 9.72434 2.71336 9.3561C2.3355 8.98785 2.24717 8.5227 2.29134 7.99455C2.15884 7.99455 2.04597 7.99455 1.93311 7.99455C1.38349 7.98486 1.01054 7.62146 1.00563 7.08363C1.00073 6.66209 1.00073 6.23569 1.00563 5.81415C1.01054 5.29085 1.39331 4.91776 1.92329 4.90807C2.03616 4.90807 2.15393 4.90807 2.2668 4.90807C2.28152 4.68518 2.28152 4.48168 2.31587 4.27818C2.43365 3.65797 2.95382 3.20251 3.58685 3.15406C3.68991 3.14437 3.79296 3.14437 3.90092 3.14437C5.23569 3.14437 6.57047 3.14437 7.90524 3.13952C8.04755 3.13952 8.19968 3.11529 8.33217 3.06684C10.3834 2.33035 12.4297 1.58901 14.481 0.847672C14.7999 0.731384 14.9275 0.823446 14.9275 1.16262C14.9275 2.37396 14.9275 3.58045 14.9275 4.79178C14.9275 4.85962 14.9275 4.92261 14.9275 4.99044C15.6538 5.20364 16.1053 5.64941 16.1298 6.40044C16.1593 7.20961 15.698 7.69899 14.9275 7.93157C14.9275 8.05754 14.9275 8.18837 14.9275 8.31435C14.9275 9.46754 14.9275 10.6256 14.9275 11.7788C14.9275 12.0889 14.795 12.1809 14.5006 12.0743C12.4346 11.3282 10.3687 10.582 8.29782 9.84063C8.18496 9.80187 8.06228 9.77764 7.9445 9.77764C7.66969 9.76311 7.39489 9.76795 7.09554 9.76795ZM13.1168 11.052C13.1168 7.98002 13.1168 4.9323 13.1168 1.87489C13.0726 1.88458 13.0382 1.89427 13.0039 1.90396C11.517 2.44179 10.035 2.97962 8.54319 3.51261C8.4156 3.55622 8.4156 3.6289 8.4156 3.73065C8.4156 5.54766 8.42051 7.36951 8.4156 9.18651C8.4156 9.31733 8.45486 9.37063 8.57754 9.41424C9.68167 9.80671 10.7809 10.2089 11.885 10.6062C12.2923 10.7564 12.6947 10.9018 13.1168 11.052ZM7.90034 3.63859C7.82182 3.63859 7.75803 3.63859 7.69914 3.63859C6.39381 3.63859 5.09338 3.63859 3.78805 3.63859C3.16974 3.63859 2.77715 4.01653 2.77715 4.63189C2.77715 5.21817 2.78697 5.80446 2.78697 6.39075C2.78697 7.02549 2.77225 7.66023 2.77715 8.29497C2.77715 8.90063 3.16483 9.27857 3.77333 9.28342C4.04814 9.28826 4.32294 9.28342 4.59775 9.28342C5.62337 9.28342 6.65389 9.28342 7.67951 9.28342C7.75312 9.28342 7.82182 9.28342 7.89543 9.28342C7.90034 7.39373 7.90034 5.52828 7.90034 3.63859ZM6.5901 9.77764C5.92271 9.77764 5.26514 9.77764 4.58303 9.77764C4.58303 9.85032 4.58303 9.923 4.58303 9.99568C4.58303 11.1537 4.58303 12.3166 4.58303 13.4746C4.58303 13.5909 4.58303 13.7024 4.59284 13.8187C4.64682 14.3226 5.07866 14.7005 5.58902 14.7054C6.16317 14.7054 6.595 14.2693 6.59991 13.6636C6.60482 12.4184 6.59991 11.1731 6.59991 9.92785C6.59991 9.87939 6.595 9.83579 6.5901 9.77764ZM14.427 11.5268C14.427 8.13992 14.427 4.77725 14.427 1.3952C14.216 1.46788 14.0246 1.55025 13.8283 1.60355C13.6615 1.64715 13.6222 1.73437 13.6222 1.89911C13.6271 4.93714 13.6271 7.98002 13.6271 11.0181C13.6271 11.052 13.6173 11.0956 13.632 11.1246C13.6566 11.1779 13.6909 11.2458 13.74 11.2652C13.9461 11.3572 14.1718 11.4347 14.427 11.5268ZM2.27661 5.40714C2.1294 5.40714 2.00181 5.4023 1.87422 5.40714C1.65339 5.42168 1.51108 5.56219 1.50617 5.78023C1.49636 6.23085 1.50127 6.68631 1.50617 7.13693C1.51108 7.3259 1.63867 7.4761 1.82515 7.50033C1.97236 7.51971 2.12449 7.50518 2.27661 7.50518C2.27661 6.8026 2.27661 6.11941 2.27661 5.40714ZM14.9373 5.53312C14.9373 6.15332 14.9373 6.77353 14.9373 7.38889C15.3348 7.30652 15.6538 6.88982 15.6489 6.45374C15.644 6.0225 15.325 5.60096 14.9373 5.53312Z" fill="#E29537" stroke="#E29537" stroke-width="0.1" stroke-miterlimit="10"/>
<path d="M16.6989 5.09184C16.6204 5.02885 16.5223 4.99009 16.4928 4.92225C16.4634 4.85442 16.4683 4.72359 16.5174 4.67514C16.8462 4.33112 17.1897 3.99194 17.5381 3.66246C17.6411 3.56555 17.7687 3.58978 17.862 3.69638C17.965 3.80782 17.9454 3.9338 17.8423 4.03555C17.6411 4.23906 17.4399 4.43772 17.2338 4.63638C17.1259 4.74297 17.0228 4.85442 16.9099 4.95617C16.856 4.99978 16.7873 5.03369 16.6989 5.09184Z" fill="#E29537" stroke="#E29537" stroke-width="0.1" stroke-miterlimit="10"/>
<path d="M17.9118 9.07471C17.8529 9.14254 17.8087 9.2443 17.74 9.25883C17.6566 9.27821 17.529 9.25883 17.4652 9.20553C17.2493 9.02141 17.053 8.81306 16.8518 8.60956C16.734 8.49327 16.6163 8.38182 16.5034 8.26554C16.3954 8.14925 16.3905 8.00389 16.4985 7.91183C16.6113 7.81007 16.7389 7.81492 16.842 7.91667C17.1708 8.23162 17.4947 8.55141 17.8136 8.87605C17.8529 8.91966 17.8676 8.98749 17.9118 9.07471Z" fill="#E29537" stroke="#E29537" stroke-width="0.1" stroke-miterlimit="10"/>
<path d="M18.0526 6.70133C17.8367 6.70133 17.6257 6.70618 17.4098 6.70133C17.2233 6.69649 17.1301 6.61412 17.1252 6.46391C17.1203 6.30886 17.2233 6.2168 17.4196 6.2168C17.8465 6.2168 18.2735 6.2168 18.7004 6.2168C18.882 6.2168 18.9997 6.31855 18.9997 6.46391C18.9948 6.60442 18.8918 6.69649 18.7102 6.70133C18.4894 6.70618 18.2686 6.70133 18.0526 6.70133Z" fill="#E29537" stroke="#E29537" stroke-width="0.1" stroke-miterlimit="10"/>
</svg>
