<svg width="23" height="20" viewBox="0 0 23 20" fill="none" xmlns="http://www.w3.org/2000/svg">
<g clip-path="url(#clip0_568_112)">
<path d="M11.5 5.625C11.0768 5.63147 10.6567 5.69724 10.2525 5.82031C10.4395 6.14192 10.539 6.50504 10.5416 6.875C10.5416 7.16227 10.4838 7.44672 10.3714 7.71212C10.2591 7.97752 10.0943 8.21867 9.8867 8.4218C9.67906 8.62492 9.43255 8.78605 9.16126 8.89599C8.88996 9.00592 8.59918 9.0625 8.30553 9.0625C7.92735 9.05993 7.55616 8.96256 7.22741 8.77969C6.96803 9.65969 6.99826 10.5972 7.31382 11.4595C7.62937 12.3217 8.21426 13.065 8.98562 13.584C9.75698 14.103 10.6757 14.3714 11.6117 14.3513C12.5477 14.3311 13.4534 14.0233 14.2007 13.4716C14.9479 12.9199 15.4988 12.1521 15.7752 11.2771C16.0516 10.4021 16.0396 9.46417 15.7409 8.5962C15.4421 7.72823 14.8718 6.97421 14.1107 6.44096C13.3495 5.9077 12.4362 5.62224 11.5 5.625ZM22.861 9.42969C20.6956 5.29648 16.4086 2.5 11.5 2.5C6.59131 2.5 2.30317 5.29844 0.138936 9.43008C0.0475921 9.60684 0 9.80213 0 10.0002C0 10.1983 0.0475921 10.3936 0.138936 10.5703C2.30437 14.7035 6.59131 17.5 11.5 17.5C16.4086 17.5 20.6968 14.7016 22.861 10.5699C22.9524 10.3932 23 10.1979 23 9.9998C23 9.80174 22.9524 9.60645 22.861 9.42969ZM11.5 15.625C7.56083 15.625 3.94951 13.4766 1.9993 10C3.94951 6.52344 7.56043 4.375 11.5 4.375C15.4395 4.375 19.0504 6.52344 21.0007 10C19.0508 13.4766 15.4395 15.625 11.5 15.625Z" fill="#24B6F2"/>
</g>
<defs>
<clipPath id="clip0_568_112">
<rect width="23" height="20" fill="white" transform="matrix(-1 0 0 1 23 0)"/>
</clipPath>
</defs>
</svg>
