<svg width="24" height="27" viewBox="0 0 24 27" fill="none" xmlns="http://www.w3.org/2000/svg">
<path d="M11.908 1.74358C12.0731 1.53697 12.2776 1.36516 12.5095 1.2381C12.7415 1.11104 12.9964 1.03125 13.2594 1.00335C13.5224 0.975446 13.7883 0.99999 14.0418 1.07556C14.2953 1.15112 14.5312 1.27621 14.736 1.44358L21.26 6.77158C21.6188 7.06453 21.8648 7.47292 21.956 7.92704C22.0471 8.38115 21.9779 8.85285 21.76 9.26158C21.1896 9.08726 20.5964 8.99896 20 8.99958H19.4L19.996 8.31958L16.56 5.51358L13.726 9.00158H11.148L15.01 4.24958L13.47 2.99158L8.674 8.99958H6.114L11.908 1.74358ZM17 18.9996C16.7348 18.9996 16.4804 19.1049 16.2929 19.2925C16.1054 19.48 16 19.7344 16 19.9996C16 20.2648 16.1054 20.5192 16.2929 20.7067C16.4804 20.8942 16.7348 20.9996 17 20.9996H19C19.2652 20.9996 19.5196 20.8942 19.7071 20.7067C19.8946 20.5192 20 20.2648 20 19.9996C20 19.7344 19.8946 19.48 19.7071 19.2925C19.5196 19.1049 19.2652 18.9996 19 18.9996H17ZM2 9.99958C2 9.73437 2.10536 9.48001 2.29289 9.29248C2.48043 9.10494 2.73478 8.99958 3 8.99958H4.116L5.706 6.99958H3C2.20435 6.99958 1.44129 7.31565 0.87868 7.87826C0.316071 8.44087 0 9.20393 0 9.99958V21.9996C0 23.3257 0.526784 24.5974 1.46447 25.5351C2.40215 26.4728 3.67392 26.9996 5 26.9996H20C21.0609 26.9996 22.0783 26.5782 22.8284 25.828C23.5786 25.0779 24 24.0604 24 22.9996V14.9996C24 13.9387 23.5786 12.9213 22.8284 12.1712C22.0783 11.421 21.0609 10.9996 20 10.9996H3C2.73478 10.9996 2.48043 10.8942 2.29289 10.7067C2.10536 10.5192 2 10.2648 2 9.99958ZM2 21.9996V12.8296C2.312 12.9396 2.65 12.9996 3 12.9996H20C20.5304 12.9996 21.0391 13.2103 21.4142 13.5854C21.7893 13.9604 22 14.4692 22 14.9996V22.9996C22 23.53 21.7893 24.0387 21.4142 24.4138C21.0391 24.7889 20.5304 24.9996 20 24.9996H5C4.20435 24.9996 3.44129 24.6835 2.87868 24.1209C2.31607 23.5583 2 22.7952 2 21.9996Z" fill="#00263D"/>
</svg>
