<svg width="17" height="10" viewBox="0 0 17 10" fill="none" xmlns="http://www.w3.org/2000/svg">
<path d="M6.89351 4.19156C6.79171 4.31257 6.72693 4.41628 6.63439 4.50271C4.81131 6.21404 2.97897 7.91672 1.14664 9.6194C1.05409 9.70583 0.970806 9.79226 0.859756 9.85276C0.6284 10.0083 0.387791 9.97376 0.202706 9.79226C0.00836764 9.61075 -0.000886593 9.38603 0.156435 9.1786C0.21196 9.10081 0.295248 9.03167 0.369282 8.96252C2.36819 7.10427 4.37636 5.23737 6.37527 3.37048C6.82873 2.94697 7.03232 2.94697 7.49503 3.37912C8.26313 4.09649 9.03123 4.81386 9.80859 5.53124C9.89187 5.60902 9.97516 5.67817 10.0214 5.71274C11.7057 4.13971 13.3807 2.58396 15.065 1.01092C14.6578 1.01092 14.2321 1.01957 13.8064 1.01092C13.4177 1.00228 13.2141 0.786206 13.2697 0.449127C13.3067 0.189836 13.4733 0.0429039 13.7601 0.0429039C14.6485 0.0429039 15.5369 0.0342608 16.4346 0.0429039C16.7493 0.0429039 16.9436 0.233051 16.9528 0.535557C16.9621 1.35665 16.9621 2.17774 16.9528 2.99018C16.9528 3.29269 16.7307 3.47419 16.4254 3.46555C16.12 3.45691 15.9256 3.26676 15.9164 2.96425C15.9071 2.56667 15.9164 2.16909 15.9164 1.71101C15.7776 1.82337 15.685 1.90116 15.6017 1.97895C13.9452 3.52605 12.2795 5.07315 10.623 6.62026C10.1788 7.03513 9.96591 7.03513 9.52171 6.62026C8.66106 5.84239 7.81893 5.04723 6.89351 4.19156Z" fill="#E29537" stroke="#E29537" stroke-width="0.1" stroke-miterlimit="10"/>
</svg>
