<svg width="18" height="20" viewBox="0 0 18 20" fill="none" xmlns="http://www.w3.org/2000/svg">
<path d="M15.9924 20C11.3319 20 6.67144 20 2.01098 20C1.99463 19.9922 1.97827 19.9766 1.95783 19.9727C0.988949 19.8633 -0.0126411 19.0078 -0.000376779 17.6836C0.024152 15.4297 0.00779946 13.1797 0.00779946 10.9258C0.00779946 8.03516 0.00779946 5.14453 0.00779946 2.25781C0.00779946 1.38281 0.396171 0.710938 1.19335 0.28125C1.44273 0.148437 1.73707 0.0898438 2.01098 0C5.75979 0 9.50859 0 13.2533 0C13.3637 0.0703125 13.4904 0.128906 13.5845 0.21875C14.9826 1.52344 16.3766 2.83203 17.7707 4.14062C17.926 4.28516 17.9996 4.45703 17.9955 4.66406C17.9914 5.125 17.9955 5.58984 17.9955 6.05078C17.9955 9.94922 17.9955 13.8477 17.9955 17.7461C17.9955 18.8359 17.3006 19.6914 16.2254 19.9453C16.1477 19.9609 16.07 19.9805 15.9924 20ZM12.4929 1.17188C12.3948 1.17188 12.3253 1.17188 12.2517 1.17188C8.96896 1.17188 5.68211 1.17188 2.39935 1.17188C1.67575 1.17188 1.23832 1.58594 1.23832 2.27344C1.23832 7.42188 1.23832 12.5742 1.23832 17.7227C1.23832 18.4102 1.67575 18.8281 2.39935 18.8281C6.80226 18.8281 11.2052 18.8281 15.604 18.8281C16.3398 18.8281 16.7732 18.4141 16.7732 17.7148C16.7732 13.6133 16.7732 9.51172 16.7732 5.41016C16.7732 5.33984 16.7732 5.27344 16.7732 5.1875C16.6751 5.1875 16.6015 5.1875 16.5279 5.1875C15.7021 5.1875 14.8804 5.1875 14.0546 5.1875C13.0898 5.1875 12.5011 4.625 12.497 3.70312C12.497 2.93359 12.497 2.16797 12.497 1.39844C12.4929 1.33203 12.4929 1.26172 12.4929 1.17188ZM13.7684 2.01172C13.7521 2.02344 13.7316 2.03516 13.7153 2.04688C13.7153 2.37891 13.7071 2.71094 13.7194 3.03906C13.7316 3.34766 13.7602 3.65234 13.7848 3.96094C14.0996 3.98047 14.4143 4.00781 14.7291 4.01562C15.093 4.02344 15.4568 4.01953 15.7593 4.01953C15.1093 3.36328 14.4389 2.6875 13.7684 2.01172Z" fill="#333333" fill-opacity="0.5"/>
<path d="M8.94061 9.29687C10.3633 9.29687 11.79 9.29687 13.2127 9.29687C13.7114 9.29687 14.0181 9.73437 13.8096 10.1367C13.691 10.3633 13.4907 10.4648 13.229 10.4648C12.7099 10.4648 12.1948 10.4648 11.6756 10.4648C9.34533 10.4648 7.0151 10.4648 4.68487 10.4648C4.2965 10.4648 4.03078 10.25 4.01033 9.92578C3.98581 9.5664 4.25562 9.29687 4.65217 9.29297C5.61288 9.28906 6.57359 9.29297 7.5343 9.29297C8.00034 9.29687 8.47048 9.29687 8.94061 9.29687Z" fill="#333333" fill-opacity="0.5"/>
<path d="M8.56446 13.9844C9.86448 13.9844 11.1686 13.9844 12.4686 13.9844C12.9592 13.9844 13.2658 14.4063 13.0696 14.8086C12.951 15.0508 12.7384 15.1563 12.4604 15.1563C11.6633 15.1563 10.8661 15.1563 10.0689 15.1563C8.27829 15.1563 6.48361 15.1563 4.69301 15.1563C4.45999 15.1563 4.25967 15.0977 4.12067 14.9102C3.97759 14.7188 3.96123 14.5078 4.07161 14.3008C4.18608 14.0859 4.38231 13.9805 4.63578 13.9805C5.40434 13.9805 6.177 13.9805 6.94556 13.9805C7.4852 13.9844 8.02483 13.9844 8.56446 13.9844Z" fill="#333333" fill-opacity="0.5"/>
<path d="M8.14317 12.8125C6.97806 12.8125 5.81294 12.8164 4.64783 12.8125C4.16952 12.8125 3.867 12.3906 4.05505 11.9961C4.16952 11.75 4.3821 11.6406 4.66009 11.6406C5.32646 11.6406 5.99691 11.6406 6.66327 11.6406C8.31079 11.6406 9.9583 11.6406 11.6099 11.6406C12.1127 11.6406 12.4234 12.0703 12.2149 12.4766C12.0923 12.7187 11.8756 12.8164 11.5976 12.8125C10.4448 12.8125 9.29602 12.8125 8.14317 12.8125Z" fill="#333333" fill-opacity="0.5"/>
</svg>
