<svg width="18" height="18" viewBox="0 0 18 18" fill="none" xmlns="http://www.w3.org/2000/svg">
<mask id="path-1-inside-1_149_18907" fill="white">
<path d="M7.9833 17.7424C7.70154 17.6591 7.45265 17.5388 7.2695 17.3028C7.06288 17.039 7.04409 16.729 7.00652 16.4189C6.96426 16.1135 6.93608 15.8127 6.88912 15.5073C6.87973 15.4471 6.81398 15.3685 6.75294 15.3407C6.48996 15.2204 6.21758 15.1093 5.94521 15.0075C5.88886 14.989 5.79494 14.9982 5.74798 15.0353C5.41925 15.2759 5.09992 15.5304 4.7712 15.7757C4.23115 16.1829 3.65823 16.1413 3.17923 15.6646C2.82233 15.3129 2.46543 14.9612 2.10853 14.6095C1.62484 14.1329 1.58727 13.5729 2.00052 13.0408C2.24472 12.7307 2.48422 12.416 2.73311 12.1106C2.80355 12.0227 2.81764 11.9579 2.76598 11.8515C2.64858 11.6062 2.54527 11.3563 2.45134 11.1018C2.41378 11.0092 2.37151 10.963 2.2682 10.9491C1.86903 10.9028 1.46517 10.8473 1.06601 10.8056C0.427342 10.7408 0.00469606 10.2873 0 9.66259C0 9.14429 0 8.62137 0 8.10308C0 7.45521 0.403861 7.01096 1.05661 6.93229C1.45578 6.88601 1.85964 6.83048 2.25881 6.78883C2.35742 6.77958 2.40908 6.73793 2.44665 6.64075C2.54526 6.3816 2.65327 6.12708 2.77068 5.87256C2.81294 5.78001 2.81294 5.71985 2.7472 5.64118C2.48891 5.3265 2.24002 5.00719 1.99113 4.68326C1.59196 4.16959 1.62484 3.59577 2.08975 3.13763C2.45604 2.77205 2.82703 2.4111 3.19802 2.04551C3.65823 1.59663 4.23585 1.55499 4.75241 1.94371C5.07644 2.18897 5.40047 2.43886 5.7245 2.68875C5.80903 2.75354 5.87477 2.76742 5.97339 2.72115C6.22228 2.60546 6.47587 2.50365 6.73415 2.4111C6.84216 2.36945 6.88443 2.31392 6.89851 2.20285C6.95017 1.77248 6.99713 1.34212 7.06757 0.916374C7.1521 0.370314 7.60292 0.00473122 8.17115 0.000103598C8.71119 -0.00452403 9.25124 0.000103598 9.78659 0.000103598C10.43 0.000103598 10.8808 0.398079 10.9653 1.03206C11.017 1.42541 11.0686 1.82339 11.1109 2.21674C11.125 2.32317 11.1625 2.37408 11.2659 2.4111C11.5288 2.50828 11.7871 2.61009 12.0407 2.7304C12.1393 2.77668 12.2004 2.75817 12.2755 2.69801C12.5948 2.44812 12.9189 2.19823 13.2476 1.95296C13.7548 1.56424 14.3465 1.60126 14.802 2.04551C15.1777 2.4111 15.5487 2.77668 15.9196 3.14689C16.3705 3.59577 16.408 4.16959 16.0136 4.67863C15.7694 4.99331 15.5205 5.30799 15.2669 5.62267C15.1965 5.71059 15.1824 5.77538 15.234 5.88182C15.3514 6.12708 15.4547 6.37697 15.5487 6.63149C15.5862 6.72405 15.6285 6.77032 15.7318 6.7842C16.1216 6.82585 16.5114 6.88138 16.9011 6.92303C17.4553 6.98319 17.8216 7.25622 17.9671 7.79765C17.9718 7.82079 17.9859 7.8393 17.9953 7.85781C17.9953 8.52882 17.9953 9.19983 17.9953 9.8662C17.9859 9.89397 17.9718 9.91711 17.9624 9.94487C17.8216 10.4447 17.4787 10.7223 16.9669 10.7917C16.5677 10.8473 16.1638 10.8982 15.7647 10.9398C15.6426 10.9537 15.5815 10.9953 15.5393 11.111C15.45 11.3563 15.3514 11.5969 15.2387 11.8283C15.1871 11.9348 15.1871 12.0088 15.2669 12.106C15.5252 12.4207 15.7741 12.74 16.023 13.0639C16.4033 13.5544 16.3658 14.1329 15.929 14.5679C15.5534 14.9427 15.1777 15.3129 14.7973 15.6831C14.3371 16.132 13.7548 16.1644 13.2429 15.7757C12.9189 15.5304 12.5948 15.2805 12.2708 15.0306C12.1957 14.9705 12.1346 14.9566 12.036 14.9982C11.7824 15.1139 11.5194 15.2204 11.2612 15.3175C11.1672 15.3546 11.1203 15.3962 11.1062 15.498C11.0733 15.8081 11.0357 16.1181 10.9935 16.4235C10.9559 16.7151 10.9371 17.0113 10.7493 17.2612C10.5661 17.5157 10.3032 17.6452 10.012 17.7285C9.34047 17.7424 8.65954 17.7424 7.9833 17.7424ZM17.2533 8.86664C17.2533 8.61674 17.2533 8.37148 17.2533 8.12159C17.2486 7.8393 17.1359 7.70973 16.8542 7.67271C16.3564 7.60792 15.8539 7.54314 15.3561 7.4876C15.1401 7.46447 15.0133 7.36266 14.9382 7.15441C14.7879 6.75181 14.6188 6.34921 14.4357 5.96049C14.3418 5.7615 14.3465 5.60416 14.4827 5.43294C14.802 5.03959 15.1119 4.64161 15.4219 4.24364C15.5956 4.02151 15.5815 3.86417 15.3796 3.66518C15.018 3.30886 14.6611 2.95253 14.2995 2.60083C14.0835 2.38796 13.9285 2.3787 13.6843 2.56844C13.2852 2.87386 12.886 3.17466 12.4915 3.48471C12.3272 3.61428 12.1675 3.62353 11.9703 3.53561C11.5852 3.35976 11.1907 3.19317 10.7915 3.04971C10.5474 2.96641 10.43 2.83221 10.4065 2.58232C10.3595 2.10105 10.2891 1.61977 10.2233 1.1385C10.1858 0.860842 10.0496 0.749779 9.76311 0.745152C9.26063 0.745152 8.75346 0.745152 8.25098 0.745152C7.95043 0.745152 7.81894 0.856214 7.78137 1.14775C7.71563 1.63366 7.65458 2.11956 7.59823 2.60546C7.57475 2.82758 7.47143 2.95253 7.25072 3.0312C6.84216 3.17928 6.4336 3.34588 6.03913 3.52635C5.8372 3.61891 5.67754 3.60502 5.50378 3.47082C5.10931 3.16077 4.71015 2.85998 4.31098 2.55455C4.07618 2.37408 3.92121 2.38796 3.70989 2.59157C3.35299 2.94327 2.99609 3.29497 2.64388 3.64667C2.41847 3.8688 2.40908 4.01688 2.60631 4.26677C2.91156 4.6555 3.21211 5.04422 3.52674 5.42831C3.66293 5.59953 3.67232 5.75687 3.5784 5.95586C3.39995 6.34458 3.22619 6.7333 3.08062 7.1359C2.99609 7.36728 2.8599 7.46909 2.6251 7.49223C2.13671 7.54313 1.64832 7.60792 1.15993 7.67271C0.868771 7.70973 0.756066 7.84393 0.75137 8.13547C0.75137 8.626 0.75137 9.11653 0.75137 9.60706C0.75137 9.91711 0.868771 10.0421 1.1881 10.0837C1.68119 10.1439 2.17428 10.2086 2.66736 10.2642C2.87869 10.2873 2.99609 10.3938 3.07122 10.5927C3.2215 10.9907 3.38116 11.3887 3.56431 11.7728C3.66293 11.981 3.66293 12.1476 3.51735 12.3281C3.20271 12.7168 2.89747 13.1102 2.58753 13.5035C2.41378 13.7256 2.42317 13.883 2.6251 14.082C2.982 14.4337 3.3389 14.7854 3.6958 15.1371C3.92591 15.3638 4.07618 15.3731 4.33916 15.1741C4.73833 14.8687 5.13749 14.5679 5.53196 14.2578C5.68693 14.1375 5.8419 14.1329 6.02035 14.2115C6.42421 14.392 6.83277 14.5632 7.25072 14.716C7.47613 14.7993 7.57944 14.9288 7.60292 15.1556C7.65458 15.6415 7.72032 16.1274 7.78607 16.6133C7.82364 16.8909 7.95982 17.002 8.24628 17.0066C8.74876 17.0066 9.25594 17.0066 9.75842 17.0066C10.0543 17.0066 10.1858 16.8956 10.228 16.604C10.2938 16.1181 10.3548 15.6322 10.4112 15.1463C10.4346 14.9242 10.538 14.7993 10.7587 14.7206C11.1625 14.5771 11.5664 14.4105 11.9562 14.2301C12.1722 14.1282 12.3366 14.1468 12.5197 14.2902C12.9095 14.5956 13.3039 14.8964 13.6984 15.1972C13.9332 15.3731 14.0882 15.3638 14.2995 15.1556C14.6611 14.7993 15.0227 14.4476 15.3796 14.0912C15.5862 13.8876 15.5956 13.7303 15.4125 13.4989C15.1025 13.1009 14.7879 12.7029 14.4733 12.3096C14.3465 12.1523 14.3371 11.9995 14.4216 11.8144C14.6001 11.4211 14.7785 11.0231 14.9288 10.6205C15.0133 10.3938 15.1495 10.2919 15.3843 10.2642C15.8774 10.2133 16.3705 10.1485 16.8636 10.0837C17.1359 10.0467 17.2486 9.91248 17.2533 9.63945C17.2533 9.37105 17.2533 9.11653 17.2533 8.86664Z"/>
</mask>
<path d="M7.9833 17.7424C7.70154 17.6591 7.45265 17.5388 7.2695 17.3028C7.06288 17.039 7.04409 16.729 7.00652 16.4189C6.96426 16.1135 6.93608 15.8127 6.88912 15.5073C6.87973 15.4471 6.81398 15.3685 6.75294 15.3407C6.48996 15.2204 6.21758 15.1093 5.94521 15.0075C5.88886 14.989 5.79494 14.9982 5.74798 15.0353C5.41925 15.2759 5.09992 15.5304 4.7712 15.7757C4.23115 16.1829 3.65823 16.1413 3.17923 15.6646C2.82233 15.3129 2.46543 14.9612 2.10853 14.6095C1.62484 14.1329 1.58727 13.5729 2.00052 13.0408C2.24472 12.7307 2.48422 12.416 2.73311 12.1106C2.80355 12.0227 2.81764 11.9579 2.76598 11.8515C2.64858 11.6062 2.54527 11.3563 2.45134 11.1018C2.41378 11.0092 2.37151 10.963 2.2682 10.9491C1.86903 10.9028 1.46517 10.8473 1.06601 10.8056C0.427342 10.7408 0.00469606 10.2873 0 9.66259C0 9.14429 0 8.62137 0 8.10308C0 7.45521 0.403861 7.01096 1.05661 6.93229C1.45578 6.88601 1.85964 6.83048 2.25881 6.78883C2.35742 6.77958 2.40908 6.73793 2.44665 6.64075C2.54526 6.3816 2.65327 6.12708 2.77068 5.87256C2.81294 5.78001 2.81294 5.71985 2.7472 5.64118C2.48891 5.3265 2.24002 5.00719 1.99113 4.68326C1.59196 4.16959 1.62484 3.59577 2.08975 3.13763C2.45604 2.77205 2.82703 2.4111 3.19802 2.04551C3.65823 1.59663 4.23585 1.55499 4.75241 1.94371C5.07644 2.18897 5.40047 2.43886 5.7245 2.68875C5.80903 2.75354 5.87477 2.76742 5.97339 2.72115C6.22228 2.60546 6.47587 2.50365 6.73415 2.4111C6.84216 2.36945 6.88443 2.31392 6.89851 2.20285C6.95017 1.77248 6.99713 1.34212 7.06757 0.916374C7.1521 0.370314 7.60292 0.00473122 8.17115 0.000103598C8.71119 -0.00452403 9.25124 0.000103598 9.78659 0.000103598C10.43 0.000103598 10.8808 0.398079 10.9653 1.03206C11.017 1.42541 11.0686 1.82339 11.1109 2.21674C11.125 2.32317 11.1625 2.37408 11.2659 2.4111C11.5288 2.50828 11.7871 2.61009 12.0407 2.7304C12.1393 2.77668 12.2004 2.75817 12.2755 2.69801C12.5948 2.44812 12.9189 2.19823 13.2476 1.95296C13.7548 1.56424 14.3465 1.60126 14.802 2.04551C15.1777 2.4111 15.5487 2.77668 15.9196 3.14689C16.3705 3.59577 16.408 4.16959 16.0136 4.67863C15.7694 4.99331 15.5205 5.30799 15.2669 5.62267C15.1965 5.71059 15.1824 5.77538 15.234 5.88182C15.3514 6.12708 15.4547 6.37697 15.5487 6.63149C15.5862 6.72405 15.6285 6.77032 15.7318 6.7842C16.1216 6.82585 16.5114 6.88138 16.9011 6.92303C17.4553 6.98319 17.8216 7.25622 17.9671 7.79765C17.9718 7.82079 17.9859 7.8393 17.9953 7.85781C17.9953 8.52882 17.9953 9.19983 17.9953 9.8662C17.9859 9.89397 17.9718 9.91711 17.9624 9.94487C17.8216 10.4447 17.4787 10.7223 16.9669 10.7917C16.5677 10.8473 16.1638 10.8982 15.7647 10.9398C15.6426 10.9537 15.5815 10.9953 15.5393 11.111C15.45 11.3563 15.3514 11.5969 15.2387 11.8283C15.1871 11.9348 15.1871 12.0088 15.2669 12.106C15.5252 12.4207 15.7741 12.74 16.023 13.0639C16.4033 13.5544 16.3658 14.1329 15.929 14.5679C15.5534 14.9427 15.1777 15.3129 14.7973 15.6831C14.3371 16.132 13.7548 16.1644 13.2429 15.7757C12.9189 15.5304 12.5948 15.2805 12.2708 15.0306C12.1957 14.9705 12.1346 14.9566 12.036 14.9982C11.7824 15.1139 11.5194 15.2204 11.2612 15.3175C11.1672 15.3546 11.1203 15.3962 11.1062 15.498C11.0733 15.8081 11.0357 16.1181 10.9935 16.4235C10.9559 16.7151 10.9371 17.0113 10.7493 17.2612C10.5661 17.5157 10.3032 17.6452 10.012 17.7285C9.34047 17.7424 8.65954 17.7424 7.9833 17.7424ZM17.2533 8.86664C17.2533 8.61674 17.2533 8.37148 17.2533 8.12159C17.2486 7.8393 17.1359 7.70973 16.8542 7.67271C16.3564 7.60792 15.8539 7.54314 15.3561 7.4876C15.1401 7.46447 15.0133 7.36266 14.9382 7.15441C14.7879 6.75181 14.6188 6.34921 14.4357 5.96049C14.3418 5.7615 14.3465 5.60416 14.4827 5.43294C14.802 5.03959 15.1119 4.64161 15.4219 4.24364C15.5956 4.02151 15.5815 3.86417 15.3796 3.66518C15.018 3.30886 14.6611 2.95253 14.2995 2.60083C14.0835 2.38796 13.9285 2.3787 13.6843 2.56844C13.2852 2.87386 12.886 3.17466 12.4915 3.48471C12.3272 3.61428 12.1675 3.62353 11.9703 3.53561C11.5852 3.35976 11.1907 3.19317 10.7915 3.04971C10.5474 2.96641 10.43 2.83221 10.4065 2.58232C10.3595 2.10105 10.2891 1.61977 10.2233 1.1385C10.1858 0.860842 10.0496 0.749779 9.76311 0.745152C9.26063 0.745152 8.75346 0.745152 8.25098 0.745152C7.95043 0.745152 7.81894 0.856214 7.78137 1.14775C7.71563 1.63366 7.65458 2.11956 7.59823 2.60546C7.57475 2.82758 7.47143 2.95253 7.25072 3.0312C6.84216 3.17928 6.4336 3.34588 6.03913 3.52635C5.8372 3.61891 5.67754 3.60502 5.50378 3.47082C5.10931 3.16077 4.71015 2.85998 4.31098 2.55455C4.07618 2.37408 3.92121 2.38796 3.70989 2.59157C3.35299 2.94327 2.99609 3.29497 2.64388 3.64667C2.41847 3.8688 2.40908 4.01688 2.60631 4.26677C2.91156 4.6555 3.21211 5.04422 3.52674 5.42831C3.66293 5.59953 3.67232 5.75687 3.5784 5.95586C3.39995 6.34458 3.22619 6.7333 3.08062 7.1359C2.99609 7.36728 2.8599 7.46909 2.6251 7.49223C2.13671 7.54313 1.64832 7.60792 1.15993 7.67271C0.868771 7.70973 0.756066 7.84393 0.75137 8.13547C0.75137 8.626 0.75137 9.11653 0.75137 9.60706C0.75137 9.91711 0.868771 10.0421 1.1881 10.0837C1.68119 10.1439 2.17428 10.2086 2.66736 10.2642C2.87869 10.2873 2.99609 10.3938 3.07122 10.5927C3.2215 10.9907 3.38116 11.3887 3.56431 11.7728C3.66293 11.981 3.66293 12.1476 3.51735 12.3281C3.20271 12.7168 2.89747 13.1102 2.58753 13.5035C2.41378 13.7256 2.42317 13.883 2.6251 14.082C2.982 14.4337 3.3389 14.7854 3.6958 15.1371C3.92591 15.3638 4.07618 15.3731 4.33916 15.1741C4.73833 14.8687 5.13749 14.5679 5.53196 14.2578C5.68693 14.1375 5.8419 14.1329 6.02035 14.2115C6.42421 14.392 6.83277 14.5632 7.25072 14.716C7.47613 14.7993 7.57944 14.9288 7.60292 15.1556C7.65458 15.6415 7.72032 16.1274 7.78607 16.6133C7.82364 16.8909 7.95982 17.002 8.24628 17.0066C8.74876 17.0066 9.25594 17.0066 9.75842 17.0066C10.0543 17.0066 10.1858 16.8956 10.228 16.604C10.2938 16.1181 10.3548 15.6322 10.4112 15.1463C10.4346 14.9242 10.538 14.7993 10.7587 14.7206C11.1625 14.5771 11.5664 14.4105 11.9562 14.2301C12.1722 14.1282 12.3366 14.1468 12.5197 14.2902C12.9095 14.5956 13.3039 14.8964 13.6984 15.1972C13.9332 15.3731 14.0882 15.3638 14.2995 15.1556C14.6611 14.7993 15.0227 14.4476 15.3796 14.0912C15.5862 13.8876 15.5956 13.7303 15.4125 13.4989C15.1025 13.1009 14.7879 12.7029 14.4733 12.3096C14.3465 12.1523 14.3371 11.9995 14.4216 11.8144C14.6001 11.4211 14.7785 11.0231 14.9288 10.6205C15.0133 10.3938 15.1495 10.2919 15.3843 10.2642C15.8774 10.2133 16.3705 10.1485 16.8636 10.0837C17.1359 10.0467 17.2486 9.91248 17.2533 9.63945C17.2533 9.37105 17.2533 9.11653 17.2533 8.86664Z" fill="#E29537" stroke="#E29537" stroke-width="40" mask="url(#path-1-inside-1_149_18907)"/>
<path d="M9.11035 12.5692C7.08635 12.6571 5.34411 11.0421 5.25019 8.99205C5.16097 6.98366 6.79519 5.26681 8.88964 5.17889C10.923 5.09559 12.6512 6.69675 12.7498 8.75604C12.8437 10.7598 11.2095 12.472 9.11035 12.5692ZM11.9984 8.87173C11.9984 7.23818 10.6647 5.92394 9.00704 5.91931C7.34933 5.91931 6.01095 7.22893 6.00626 8.86711C6.00156 10.5053 7.34463 11.8334 9.00704 11.8288C10.6647 11.8195 11.9984 10.5053 11.9984 8.87173Z" fill="#E29537"/>
</svg>
