<svg width="18" height="18" viewBox="0 0 18 18" fill="none" xmlns="http://www.w3.org/2000/svg">
<mask id="path-1-inside-1_345_796" fill="white">
<path d="M7.9833 17.9997C7.70154 17.9152 7.45265 17.7932 7.2695 17.5537C7.06288 17.2861 7.04409 16.9716 7.00652 16.657C6.96426 16.3472 6.93608 16.042 6.88912 15.7321C6.87973 15.6711 6.81398 15.5913 6.75294 15.5631C6.48996 15.4411 6.21758 15.3284 5.94521 15.2251C5.88886 15.2063 5.79494 15.2157 5.74798 15.2533C5.41925 15.4974 5.09992 15.7556 4.7712 16.0044C4.23115 16.4176 3.65823 16.3753 3.17923 15.8918C2.82233 15.5349 2.46543 15.1781 2.10853 14.8213C1.62484 14.3378 1.58727 13.7697 2.00052 13.2298C2.24472 12.9152 2.48422 12.596 2.73311 12.2861C2.80355 12.1969 2.81764 12.1312 2.76598 12.0232C2.64858 11.7744 2.54527 11.5209 2.45134 11.2626C2.41378 11.1688 2.37151 11.1218 2.2682 11.1077C1.86903 11.0608 1.46517 11.0044 1.06601 10.9622C0.427342 10.8965 0.00469606 10.4364 0 9.80255C0 9.27673 0 8.74622 0 8.2204C0 7.56312 0.403861 7.11241 1.05661 7.0326C1.45578 6.98565 1.85964 6.92931 2.25881 6.88706C2.35742 6.87767 2.40908 6.83542 2.44665 6.73683C2.54526 6.47392 2.65327 6.2157 2.77068 5.95748C2.81294 5.86359 2.81294 5.80255 2.7472 5.72274C2.48891 5.40349 2.24002 5.07955 1.99113 4.75091C1.59196 4.22978 1.62484 3.64762 2.08975 3.18284C2.45604 2.81194 2.82703 2.44575 3.19802 2.07485C3.65823 1.61946 4.23585 1.5772 4.75241 1.97157C5.07644 2.22039 5.40047 2.47392 5.7245 2.72744C5.80903 2.79316 5.87477 2.80725 5.97339 2.7603C6.22228 2.64293 6.47587 2.53964 6.73415 2.44575C6.84216 2.40349 6.88443 2.34715 6.89851 2.23448C6.95017 1.79786 6.99713 1.36124 7.06757 0.929314C7.1521 0.375324 7.60292 0.00443158 8.17115 -0.00026326C8.71119 -0.0049581 9.25124 -0.00026326 9.78659 -0.00026326C10.43 -0.00026326 10.8808 0.403493 10.9653 1.04669C11.017 1.44575 11.0686 1.8495 11.1109 2.24856C11.125 2.35654 11.1625 2.40819 11.2659 2.44575C11.5288 2.54434 11.7871 2.64762 12.0407 2.76969C12.1393 2.81664 12.2004 2.79786 12.2755 2.73683C12.5948 2.4833 12.9189 2.22978 13.2476 1.98096C13.7548 1.58659 14.3465 1.62415 14.802 2.07485C15.1777 2.44575 15.5487 2.81664 15.9196 3.19222C16.3705 3.64762 16.408 4.22978 16.0136 4.74622C15.7694 5.06546 15.5205 5.38471 15.2669 5.70396C15.1965 5.79316 15.1824 5.85889 15.234 5.96687C15.3514 6.2157 15.4547 6.46922 15.5487 6.72744C15.5862 6.82133 15.6285 6.86828 15.7318 6.88237C16.1216 6.92462 16.5114 6.98096 16.9011 7.02321C17.4553 7.08424 17.8216 7.36124 17.9671 7.91054C17.9718 7.93401 17.9859 7.95279 17.9953 7.97157C17.9953 8.65232 17.9953 9.33307 17.9953 10.0091C17.9859 10.0373 17.9718 10.0608 17.9624 10.0889C17.8216 10.596 17.4787 10.8777 16.9669 10.9481C16.5677 11.0044 16.1638 11.0561 15.7647 11.0983C15.6426 11.1124 15.5815 11.1547 15.5393 11.272C15.45 11.5209 15.3514 11.765 15.2387 11.9997C15.1871 12.1077 15.1871 12.1828 15.2669 12.2814C15.5252 12.6007 15.7741 12.9246 16.023 13.2533C16.4033 13.7509 16.3658 14.3378 15.929 14.7791C15.5534 15.1594 15.1777 15.5349 14.7973 15.9105C14.3371 16.3659 13.7548 16.3988 13.2429 16.0044C12.9189 15.7556 12.5948 15.5021 12.2708 15.2486C12.1957 15.1875 12.1346 15.1734 12.036 15.2157C11.7824 15.3331 11.5194 15.4411 11.2612 15.5396C11.1672 15.5772 11.1203 15.6195 11.1062 15.7227C11.0733 16.0373 11.0357 16.3518 10.9935 16.6617C10.9559 16.9575 10.9371 17.258 10.7493 17.5115C10.5661 17.7697 10.3032 17.9011 10.012 17.9857C9.34047 17.9997 8.65954 17.9997 7.9833 17.9997ZM17.2533 8.99504C17.2533 8.74152 17.2533 8.49269 17.2533 8.23917C17.2486 7.95279 17.1359 7.82133 16.8542 7.78377C16.3564 7.71805 15.8539 7.65232 15.3561 7.59598C15.1401 7.57251 15.0133 7.46922 14.9382 7.25795C14.7879 6.8495 14.6188 6.44105 14.4357 6.04669C14.3418 5.84481 14.3465 5.68518 14.4827 5.51147C14.802 5.11241 15.1119 4.70866 15.4219 4.3049C15.5956 4.07955 15.5815 3.91992 15.3796 3.71805C15.018 3.35654 14.6611 2.99504 14.2995 2.63823C14.0835 2.42227 13.9285 2.41288 13.6843 2.60537C13.2852 2.91523 12.886 3.22039 12.4915 3.53495C12.3272 3.6664 12.1675 3.67579 11.9703 3.58659C11.5852 3.40819 11.1907 3.23917 10.7915 3.09363C10.5474 3.00913 10.43 2.87298 10.4065 2.61946C10.3595 2.13119 10.2891 1.64293 10.2233 1.15467C10.1858 0.872976 10.0496 0.7603 9.76311 0.755605C9.26063 0.755605 8.75346 0.755605 8.25098 0.755605C7.95043 0.755605 7.81894 0.868281 7.78137 1.16406C7.71563 1.65701 7.65458 2.14997 7.59823 2.64293C7.57475 2.86828 7.47143 2.99504 7.25072 3.07485C6.84216 3.22509 6.4336 3.3941 6.03913 3.5772C5.8372 3.6711 5.67754 3.65701 5.50378 3.52086C5.10931 3.20631 4.71015 2.90115 4.31098 2.59129C4.07618 2.40819 3.92121 2.42227 3.70989 2.62884C3.35299 2.98565 2.99609 3.34246 2.64388 3.69927C2.41847 3.92462 2.40908 4.07485 2.60631 4.32837C2.91156 4.72274 3.21211 5.11711 3.52674 5.50678C3.66293 5.68049 3.67232 5.84011 3.5784 6.04199C3.39995 6.43636 3.22619 6.83072 3.08062 7.23917C2.99609 7.47392 2.8599 7.5772 2.6251 7.60068C2.13671 7.65232 1.64832 7.71805 1.15993 7.78377C0.868771 7.82133 0.756066 7.95748 0.75137 8.25326C0.75137 8.75091 0.75137 9.24856 0.75137 9.74622C0.75137 10.0608 0.868771 10.1875 1.1881 10.2298C1.68119 10.2908 2.17428 10.3565 2.66736 10.4129C2.87869 10.4364 2.99609 10.5443 3.07122 10.7462C3.2215 11.15 3.38116 11.5537 3.56431 11.9434C3.66293 12.1547 3.66293 12.3237 3.51735 12.5068C3.20271 12.9011 2.89747 13.3002 2.58753 13.6993C2.41378 13.9246 2.42317 14.0842 2.6251 14.2861C2.982 14.6429 3.3389 14.9997 3.6958 15.3565C3.92591 15.5866 4.07618 15.596 4.33916 15.3941C4.73833 15.0842 5.13749 14.7791 5.53196 14.4645C5.68693 14.3425 5.8419 14.3378 6.02035 14.4176C6.42421 14.6007 6.83277 14.7744 7.25072 14.9293C7.47613 15.0138 7.57944 15.1453 7.60292 15.3753C7.65458 15.8683 7.72032 16.3612 7.78607 16.8542C7.82364 17.1359 7.95982 17.2486 8.24628 17.2533C8.74876 17.2533 9.25594 17.2533 9.75842 17.2533C10.0543 17.2533 10.1858 17.1406 10.228 16.8448C10.2938 16.3518 10.3548 15.8589 10.4112 15.3659C10.4346 15.1406 10.538 15.0138 10.7587 14.934C11.1625 14.7885 11.5664 14.6195 11.9562 14.4364C12.1722 14.3331 12.3366 14.3518 12.5197 14.4974C12.9095 14.8072 13.3039 15.1124 13.6984 15.4176C13.9332 15.596 14.0882 15.5866 14.2995 15.3753C14.6611 15.0138 15.0227 14.657 15.3796 14.2955C15.5862 14.0889 15.5956 13.9293 15.4125 13.6946C15.1025 13.2908 14.7879 12.8871 14.4733 12.488C14.3465 12.3284 14.3371 12.1734 14.4216 11.9857C14.6001 11.5866 14.7785 11.1828 14.9288 10.7744C15.0133 10.5443 15.1495 10.4411 15.3843 10.4129C15.8774 10.3612 16.3705 10.2955 16.8636 10.2298C17.1359 10.1922 17.2486 10.0561 17.2533 9.77908C17.2533 9.50678 17.2533 9.24856 17.2533 8.99504Z"/>
</mask>
<path d="M7.9833 17.9997C7.70154 17.9152 7.45265 17.7932 7.2695 17.5537C7.06288 17.2861 7.04409 16.9716 7.00652 16.657C6.96426 16.3472 6.93608 16.042 6.88912 15.7321C6.87973 15.6711 6.81398 15.5913 6.75294 15.5631C6.48996 15.4411 6.21758 15.3284 5.94521 15.2251C5.88886 15.2063 5.79494 15.2157 5.74798 15.2533C5.41925 15.4974 5.09992 15.7556 4.7712 16.0044C4.23115 16.4176 3.65823 16.3753 3.17923 15.8918C2.82233 15.5349 2.46543 15.1781 2.10853 14.8213C1.62484 14.3378 1.58727 13.7697 2.00052 13.2298C2.24472 12.9152 2.48422 12.596 2.73311 12.2861C2.80355 12.1969 2.81764 12.1312 2.76598 12.0232C2.64858 11.7744 2.54527 11.5209 2.45134 11.2626C2.41378 11.1688 2.37151 11.1218 2.2682 11.1077C1.86903 11.0608 1.46517 11.0044 1.06601 10.9622C0.427342 10.8965 0.00469606 10.4364 0 9.80255C0 9.27673 0 8.74622 0 8.2204C0 7.56312 0.403861 7.11241 1.05661 7.0326C1.45578 6.98565 1.85964 6.92931 2.25881 6.88706C2.35742 6.87767 2.40908 6.83542 2.44665 6.73683C2.54526 6.47392 2.65327 6.2157 2.77068 5.95748C2.81294 5.86359 2.81294 5.80255 2.7472 5.72274C2.48891 5.40349 2.24002 5.07955 1.99113 4.75091C1.59196 4.22978 1.62484 3.64762 2.08975 3.18284C2.45604 2.81194 2.82703 2.44575 3.19802 2.07485C3.65823 1.61946 4.23585 1.5772 4.75241 1.97157C5.07644 2.22039 5.40047 2.47392 5.7245 2.72744C5.80903 2.79316 5.87477 2.80725 5.97339 2.7603C6.22228 2.64293 6.47587 2.53964 6.73415 2.44575C6.84216 2.40349 6.88443 2.34715 6.89851 2.23448C6.95017 1.79786 6.99713 1.36124 7.06757 0.929314C7.1521 0.375324 7.60292 0.00443158 8.17115 -0.00026326C8.71119 -0.0049581 9.25124 -0.00026326 9.78659 -0.00026326C10.43 -0.00026326 10.8808 0.403493 10.9653 1.04669C11.017 1.44575 11.0686 1.8495 11.1109 2.24856C11.125 2.35654 11.1625 2.40819 11.2659 2.44575C11.5288 2.54434 11.7871 2.64762 12.0407 2.76969C12.1393 2.81664 12.2004 2.79786 12.2755 2.73683C12.5948 2.4833 12.9189 2.22978 13.2476 1.98096C13.7548 1.58659 14.3465 1.62415 14.802 2.07485C15.1777 2.44575 15.5487 2.81664 15.9196 3.19222C16.3705 3.64762 16.408 4.22978 16.0136 4.74622C15.7694 5.06546 15.5205 5.38471 15.2669 5.70396C15.1965 5.79316 15.1824 5.85889 15.234 5.96687C15.3514 6.2157 15.4547 6.46922 15.5487 6.72744C15.5862 6.82133 15.6285 6.86828 15.7318 6.88237C16.1216 6.92462 16.5114 6.98096 16.9011 7.02321C17.4553 7.08424 17.8216 7.36124 17.9671 7.91054C17.9718 7.93401 17.9859 7.95279 17.9953 7.97157C17.9953 8.65232 17.9953 9.33307 17.9953 10.0091C17.9859 10.0373 17.9718 10.0608 17.9624 10.0889C17.8216 10.596 17.4787 10.8777 16.9669 10.9481C16.5677 11.0044 16.1638 11.0561 15.7647 11.0983C15.6426 11.1124 15.5815 11.1547 15.5393 11.272C15.45 11.5209 15.3514 11.765 15.2387 11.9997C15.1871 12.1077 15.1871 12.1828 15.2669 12.2814C15.5252 12.6007 15.7741 12.9246 16.023 13.2533C16.4033 13.7509 16.3658 14.3378 15.929 14.7791C15.5534 15.1594 15.1777 15.5349 14.7973 15.9105C14.3371 16.3659 13.7548 16.3988 13.2429 16.0044C12.9189 15.7556 12.5948 15.5021 12.2708 15.2486C12.1957 15.1875 12.1346 15.1734 12.036 15.2157C11.7824 15.3331 11.5194 15.4411 11.2612 15.5396C11.1672 15.5772 11.1203 15.6195 11.1062 15.7227C11.0733 16.0373 11.0357 16.3518 10.9935 16.6617C10.9559 16.9575 10.9371 17.258 10.7493 17.5115C10.5661 17.7697 10.3032 17.9011 10.012 17.9857C9.34047 17.9997 8.65954 17.9997 7.9833 17.9997ZM17.2533 8.99504C17.2533 8.74152 17.2533 8.49269 17.2533 8.23917C17.2486 7.95279 17.1359 7.82133 16.8542 7.78377C16.3564 7.71805 15.8539 7.65232 15.3561 7.59598C15.1401 7.57251 15.0133 7.46922 14.9382 7.25795C14.7879 6.8495 14.6188 6.44105 14.4357 6.04669C14.3418 5.84481 14.3465 5.68518 14.4827 5.51147C14.802 5.11241 15.1119 4.70866 15.4219 4.3049C15.5956 4.07955 15.5815 3.91992 15.3796 3.71805C15.018 3.35654 14.6611 2.99504 14.2995 2.63823C14.0835 2.42227 13.9285 2.41288 13.6843 2.60537C13.2852 2.91523 12.886 3.22039 12.4915 3.53495C12.3272 3.6664 12.1675 3.67579 11.9703 3.58659C11.5852 3.40819 11.1907 3.23917 10.7915 3.09363C10.5474 3.00913 10.43 2.87298 10.4065 2.61946C10.3595 2.13119 10.2891 1.64293 10.2233 1.15467C10.1858 0.872976 10.0496 0.7603 9.76311 0.755605C9.26063 0.755605 8.75346 0.755605 8.25098 0.755605C7.95043 0.755605 7.81894 0.868281 7.78137 1.16406C7.71563 1.65701 7.65458 2.14997 7.59823 2.64293C7.57475 2.86828 7.47143 2.99504 7.25072 3.07485C6.84216 3.22509 6.4336 3.3941 6.03913 3.5772C5.8372 3.6711 5.67754 3.65701 5.50378 3.52086C5.10931 3.20631 4.71015 2.90115 4.31098 2.59129C4.07618 2.40819 3.92121 2.42227 3.70989 2.62884C3.35299 2.98565 2.99609 3.34246 2.64388 3.69927C2.41847 3.92462 2.40908 4.07485 2.60631 4.32837C2.91156 4.72274 3.21211 5.11711 3.52674 5.50678C3.66293 5.68049 3.67232 5.84011 3.5784 6.04199C3.39995 6.43636 3.22619 6.83072 3.08062 7.23917C2.99609 7.47392 2.8599 7.5772 2.6251 7.60068C2.13671 7.65232 1.64832 7.71805 1.15993 7.78377C0.868771 7.82133 0.756066 7.95748 0.75137 8.25326C0.75137 8.75091 0.75137 9.24856 0.75137 9.74622C0.75137 10.0608 0.868771 10.1875 1.1881 10.2298C1.68119 10.2908 2.17428 10.3565 2.66736 10.4129C2.87869 10.4364 2.99609 10.5443 3.07122 10.7462C3.2215 11.15 3.38116 11.5537 3.56431 11.9434C3.66293 12.1547 3.66293 12.3237 3.51735 12.5068C3.20271 12.9011 2.89747 13.3002 2.58753 13.6993C2.41378 13.9246 2.42317 14.0842 2.6251 14.2861C2.982 14.6429 3.3389 14.9997 3.6958 15.3565C3.92591 15.5866 4.07618 15.596 4.33916 15.3941C4.73833 15.0842 5.13749 14.7791 5.53196 14.4645C5.68693 14.3425 5.8419 14.3378 6.02035 14.4176C6.42421 14.6007 6.83277 14.7744 7.25072 14.9293C7.47613 15.0138 7.57944 15.1453 7.60292 15.3753C7.65458 15.8683 7.72032 16.3612 7.78607 16.8542C7.82364 17.1359 7.95982 17.2486 8.24628 17.2533C8.74876 17.2533 9.25594 17.2533 9.75842 17.2533C10.0543 17.2533 10.1858 17.1406 10.228 16.8448C10.2938 16.3518 10.3548 15.8589 10.4112 15.3659C10.4346 15.1406 10.538 15.0138 10.7587 14.934C11.1625 14.7885 11.5664 14.6195 11.9562 14.4364C12.1722 14.3331 12.3366 14.3518 12.5197 14.4974C12.9095 14.8072 13.3039 15.1124 13.6984 15.4176C13.9332 15.596 14.0882 15.5866 14.2995 15.3753C14.6611 15.0138 15.0227 14.657 15.3796 14.2955C15.5862 14.0889 15.5956 13.9293 15.4125 13.6946C15.1025 13.2908 14.7879 12.8871 14.4733 12.488C14.3465 12.3284 14.3371 12.1734 14.4216 11.9857C14.6001 11.5866 14.7785 11.1828 14.9288 10.7744C15.0133 10.5443 15.1495 10.4411 15.3843 10.4129C15.8774 10.3612 16.3705 10.2955 16.8636 10.2298C17.1359 10.1922 17.2486 10.0561 17.2533 9.77908C17.2533 9.50678 17.2533 9.24856 17.2533 8.99504Z" fill="#333333" fill-opacity="0.5" stroke="#333333" stroke-opacity="0.5" stroke-width="40" mask="url(#path-1-inside-1_345_796)"/>
<path d="M9.11023 12.7512C7.08623 12.8404 5.34399 11.2019 5.25007 9.12206C5.16084 7.08451 6.79507 5.34272 8.88952 5.25352C10.9229 5.16901 12.6511 6.79343 12.7497 8.88263C12.8436 10.9155 11.2094 12.6526 9.11023 12.7512ZM11.9983 9C11.9983 7.34272 10.6646 6.00939 9.00692 6.00469C7.34921 6.00469 6.01083 7.33333 6.00613 8.9953C6.00144 10.6573 7.34451 12.0047 9.00692 12C10.6646 11.9906 11.9983 10.6573 11.9983 9Z" fill="#333333" fill-opacity="0.5"/>
</svg>
