<svg width="15" height="15" viewBox="0 0 15 15" fill="none" xmlns="http://www.w3.org/2000/svg">
<path d="M14.2859 2.86492C13.8832 3.30595 13.4804 3.73937 13.0852 4.16519C12.3404 3.4124 11.6185 2.68243 10.8965 1.95245C11.2233 1.61028 11.5881 1.21487 11.9756 0.84228C12.1504 0.674994 12.4088 0.66739 12.576 0.827072C13.1536 1.39737 13.716 1.99047 14.2783 2.57597C14.2859 2.67482 14.2859 2.76607 14.2859 2.86492Z" fill="#E29537" stroke="#E29537" stroke-width="0.1" stroke-miterlimit="10"/>
<path d="M4.06456 13.0917C3.33499 12.3618 2.61302 11.647 1.90625 10.9398C4.61934 8.23284 7.34762 5.50304 10.0911 2.76562C10.2963 2.99374 10.5243 3.23707 10.7979 3.53362C10.7599 3.56404 10.6611 3.61726 10.5851 3.6857C8.33558 5.92885 6.08607 8.17961 3.83657 10.4228C3.76057 10.4988 3.68458 10.5672 3.63138 10.6585C3.49458 10.879 3.50978 11.0919 3.68458 11.2896C3.85177 11.4797 4.11776 11.5177 4.33055 11.3809C4.42174 11.32 4.50534 11.2364 4.58894 11.1527C6.83084 8.91719 9.07275 6.67404 11.3147 4.43088C11.3907 4.35484 11.4363 4.2636 11.5046 4.16475C11.7858 4.4689 12.0138 4.71983 12.2266 4.95555C9.51353 7.65494 6.78525 10.3771 4.06456 13.0917Z" fill="#E29537" stroke="#E29537" stroke-width="0.1" stroke-miterlimit="10"/>
<path d="M0.736328 14.2561C0.949119 13.4653 1.15431 12.7277 1.3443 12.0205C1.87628 12.5528 2.41586 13.0927 2.97063 13.6401C2.27146 13.8378 1.53429 14.0432 0.736328 14.2561Z" fill="#E29537" stroke="#E29537" stroke-width="0.1" stroke-miterlimit="10"/>
</svg>
