<svg width="11" height="15" viewBox="0 0 11 15" fill="none" xmlns="http://www.w3.org/2000/svg">
<path d="M9.61764 0.536133C9.88723 0.604519 10.1497 0.690901 10.3732 0.870864C10.7705 1.1948 10.994 1.60871 10.994 2.12701C10.9975 5.66509 10.9975 9.20316 10.994 12.7448C10.994 13.6051 10.2845 14.3285 9.43673 14.3321C6.81177 14.3393 4.18681 14.3393 1.56185 14.3321C0.714062 14.3321 0.00461356 13.6051 0.00461356 12.7448C0.00106631 9.20316 0.00106631 5.66509 0.00461356 2.12701C0.00461356 1.37116 0.561531 0.708898 1.29936 0.564927C1.32773 0.557728 1.35611 0.546931 1.38449 0.536133C4.12651 0.536133 6.87208 0.536133 9.61764 0.536133ZM10.4158 7.44312C10.4158 5.70468 10.4158 3.96623 10.4158 2.23139C10.4158 1.55113 10.0007 1.13361 9.33031 1.13361C6.77985 1.13361 4.23293 1.13361 1.68246 1.13361C1.00139 1.13361 0.589909 1.55113 0.589909 2.23859C0.589909 5.70468 0.589909 9.17077 0.589909 12.6369C0.589909 13.3243 1.00494 13.7418 1.68246 13.7418C4.22583 13.7418 6.77275 13.7418 9.31613 13.7418C10.0043 13.7418 10.4158 13.3279 10.4158 12.6297C10.4158 10.8984 10.4158 9.17077 10.4158 7.44312Z" fill="#E29537"/>
<path d="M6.7867 5.08923C5.9531 5.08923 5.12304 5.08923 4.28944 5.08923C4.24687 5.08923 4.20076 5.09283 4.15819 5.08563C4.00921 5.06403 3.90279 4.93446 3.90634 4.78689C3.90988 4.64292 4.0163 4.52054 4.15819 4.50255C4.20076 4.49535 4.24687 4.49895 4.28944 4.49895C5.96374 4.49895 7.63449 4.49895 9.30879 4.49895C9.34781 4.49895 9.39037 4.49535 9.42939 4.50255C9.58547 4.52054 9.69898 4.65012 9.69544 4.80488C9.69189 4.95245 9.58192 5.07483 9.42939 5.09283C9.38683 5.09642 9.34071 5.09642 9.29815 5.09642C8.461 5.08923 7.62385 5.08923 6.7867 5.08923Z" fill="#E29537"/>
<path d="M6.7867 7.73083C5.9531 7.73083 5.12304 7.73083 4.28944 7.73083C4.24687 7.73083 4.20076 7.73443 4.15819 7.72723C4.00921 7.70563 3.90279 7.57606 3.90634 7.42849C3.90988 7.28452 4.0163 7.16214 4.15819 7.14415C4.20076 7.13695 4.24687 7.14055 4.28944 7.14055C5.96374 7.14055 7.63449 7.14055 9.30879 7.14055C9.34781 7.14055 9.39037 7.13695 9.42939 7.14415C9.58192 7.16214 9.69189 7.28092 9.69544 7.43209C9.69898 7.58686 9.58547 7.71643 9.42939 7.73083C9.38683 7.73443 9.34071 7.73443 9.29815 7.73443C8.461 7.73083 7.62385 7.73083 6.7867 7.73083Z" fill="#E29537"/>
<path d="M6.7867 10.3734C5.9531 10.3734 5.12304 10.3734 4.28944 10.3734C4.24687 10.3734 4.20076 10.377 4.15819 10.3698C4.00921 10.3482 3.90279 10.2186 3.90634 10.0711C3.90988 9.9271 4.0163 9.80472 4.15819 9.78673C4.20076 9.77953 4.24687 9.78313 4.28944 9.78313C5.96374 9.78313 7.63449 9.78313 9.30879 9.78313C9.34781 9.78313 9.39037 9.77953 9.42939 9.78673C9.58547 9.80472 9.69898 9.9343 9.69544 10.0891C9.69189 10.2366 9.58192 10.359 9.42939 10.377C9.38683 10.3806 9.34071 10.3806 9.29815 10.3806C8.461 10.3734 7.62385 10.3734 6.7867 10.3734Z" fill="#E29537"/>
<path d="M2.24632 5.74745C1.73197 5.74745 1.3063 5.32274 1.30276 4.80085C1.29921 4.27176 1.72133 3.83984 2.24278 3.83984C2.76422 3.83984 3.18989 4.27176 3.18634 4.79725C3.18634 5.31914 2.76422 5.74745 2.24632 5.74745ZM2.60459 4.79365C2.60459 4.59209 2.45206 4.43732 2.25342 4.43372C2.04768 4.43012 1.88805 4.58849 1.88805 4.79365C1.88805 4.99521 2.04058 5.14998 2.23923 5.15358C2.44497 5.15717 2.60459 4.99881 2.60459 4.79365Z" fill="#E29537"/>
<path d="M2.24668 6.47852C2.76813 6.47852 3.1938 6.91043 3.19025 7.43952C3.1867 7.96141 2.76458 8.38613 2.25023 8.38613C1.72878 8.38613 1.30312 7.95421 1.30666 7.42512C1.30666 6.90683 1.72878 6.48211 2.24668 6.47852ZM2.23959 7.79585C2.44533 7.79945 2.60495 7.64108 2.60495 7.43592C2.60495 7.23436 2.45242 7.07959 2.25378 7.07599C2.04804 7.07239 1.88841 7.23076 1.88841 7.43592C1.88841 7.63388 2.04094 7.79225 2.23959 7.79585Z" fill="#E29537"/>
<path d="M2.24632 9.12012C2.76777 9.12012 3.19344 9.55203 3.18989 10.0811C3.18634 10.603 2.76422 11.0277 2.24632 11.0277C1.72488 11.0277 1.29921 10.5958 1.30276 10.0667C1.3063 9.54843 1.73197 9.12012 2.24632 9.12012ZM2.24278 9.714C2.04413 9.714 1.8916 9.86876 1.88805 10.0703C1.8845 10.2755 2.04413 10.4374 2.24632 10.4338C2.44497 10.4338 2.5975 10.2791 2.60105 10.0775C2.60459 9.87236 2.44852 9.714 2.24278 9.714Z" fill="#E29537"/>
</svg>
