<svg width="18" height="17" viewBox="0 0 18 17" fill="none" xmlns="http://www.w3.org/2000/svg">
<path d="M1.80431 10.9658C1.80431 10.3124 1.7992 9.65402 1.80942 9.00064C1.80942 8.87096 1.77364 8.80114 1.65095 8.74627C1.17551 8.52681 0.710304 8.29738 0.239983 8.07294C-0.0207383 7.94825 -0.0616357 7.83353 0.0815054 7.58415C0.65407 6.54672 1.23175 5.51427 1.81454 4.48183C1.87077 4.38208 1.97301 4.28232 2.08037 4.23245C4.30928 3.13516 6.53819 2.04786 8.76711 0.950575C8.9307 0.870772 9.07384 0.87576 9.23743 0.950575C11.4766 2.04786 13.7208 3.13516 15.9651 4.23245C16.0724 4.28232 16.1695 4.38208 16.2258 4.48183C16.7932 5.49931 17.3505 6.52178 17.9128 7.53926C18.0662 7.81857 18.015 7.9682 17.7288 8.10785C17.284 8.32232 16.8392 8.54178 16.3894 8.74627C16.2667 8.80114 16.2309 8.87595 16.2309 9.00563C16.236 10.2974 16.2309 11.5892 16.236 12.876C16.236 13.1005 16.1542 13.2302 15.9548 13.3299C13.7157 14.4172 11.4817 15.5095 9.24254 16.6018C9.08406 16.6816 8.95115 16.6766 8.79267 16.5968C6.56376 15.5045 4.32973 14.4172 2.09571 13.3299C1.88611 13.2252 1.79409 13.1005 1.7992 12.8661C1.81454 12.2376 1.80431 11.5992 1.80431 10.9658ZM2.71939 4.51674C2.77563 4.54667 2.8063 4.56662 2.83697 4.58158C4.85117 5.56914 6.86026 6.5517 8.87446 7.54425C8.99204 7.59911 9.07384 7.57916 9.17608 7.52928C10.9193 6.67141 12.6626 5.81852 14.411 4.96563C14.6972 4.82598 14.9886 4.68134 15.2954 4.53171C15.234 4.49679 15.1982 4.47186 15.1624 4.4519C13.1534 3.45936 11.1494 2.4768 9.1403 1.48924C9.03294 1.43438 8.95626 1.45433 8.85913 1.49922C7.15677 2.33714 5.4493 3.17008 3.74694 4.008C3.40954 4.1726 3.07725 4.33719 2.71939 4.51674ZM9.28344 15.9734C9.36012 15.9385 9.41635 15.9185 9.46236 15.8936C11.4766 14.911 13.4908 13.9284 15.505 12.9509C15.6277 12.891 15.6583 12.8162 15.6583 12.6915C15.6532 11.5643 15.6583 10.4371 15.6532 9.30489C15.6532 9.24504 15.6481 9.18518 15.643 9.10538C15.5612 9.1403 15.4999 9.16523 15.4385 9.19516C13.9713 9.90839 12.5041 10.6166 11.0318 11.3299C10.7557 11.4645 10.674 11.4396 10.5308 11.1802C10.1474 10.4969 9.7691 9.81363 9.38568 9.13032C9.36012 9.08543 9.32945 9.04553 9.27833 8.97071C9.28344 11.3249 9.28344 13.6342 9.28344 15.9734ZM8.72621 15.9534C8.72621 13.6142 8.72621 11.3149 8.72621 8.96573C8.66997 9.0555 8.6393 9.10538 8.60863 9.15526C8.23544 9.8236 7.86225 10.487 7.48906 11.1553C7.33058 11.4396 7.24368 11.4645 6.94206 11.3199C5.47486 10.6067 4.00766 9.89842 2.54047 9.18518C2.48934 9.16025 2.43311 9.1403 2.35643 9.10538C2.35643 9.19516 2.35643 9.25501 2.35643 9.31985C2.35643 10.4371 2.36154 11.5493 2.35132 12.6666C2.35132 12.8162 2.39732 12.896 2.53535 12.9658C4.2735 13.7988 6.01164 14.6417 7.74978 15.4796C8.06674 15.6342 8.3888 15.7888 8.72621 15.9534ZM8.65464 8.00311C6.50241 6.95072 4.36552 5.9083 2.2184 4.86089C1.69696 5.81353 1.18574 6.74124 0.664294 7.67891C2.81652 8.72133 4.95342 9.75378 7.10053 10.7962C7.62198 9.85353 8.1332 8.9358 8.65464 8.00311ZM15.827 4.86588C13.6697 5.91827 11.5379 6.96069 9.39079 8.00311C9.91224 8.9358 10.4235 9.85852 10.9449 10.7962C13.0971 9.74879 15.234 8.70138 17.3811 7.65896C16.8546 6.7163 16.3434 5.79857 15.827 4.86588Z" fill="#E29537"/>
</svg>
